<svg xmlns="http://www.w3.org/2000/svg" xmlns:xlink="http://www.w3.org/1999/xlink" width="500" zoomAndPan="magnify" viewBox="0 0 375 374.999991" height="500" preserveAspectRatio="xMidYMid meet" version="1.2"><defs><clipPath id="951505c26f"><path d="M 66 138 L 109 138 L 109 160 L 66 160 Z M 66 138 "/></clipPath><clipPath id="51a45f9f96"><path d="M 90.625 171.34375 L 66.710938 153.867188 L 84.1875 129.957031 L 108.101562 147.433594 Z M 90.625 171.34375 "/></clipPath><clipPath id="bb6d4ae5a1"><path d="M 108.101562 147.433594 C 103.496094 153.730469 96.445312 158.023438 88.738281 159.222656 C 81.03125 160.421875 73.011719 158.46875 66.710938 153.867188 L 75.628906 141.667969 C 78.714844 143.921875 82.640625 144.878906 86.417969 144.292969 C 90.191406 143.703125 93.648438 141.601562 95.902344 138.515625 Z M 108.101562 147.433594 "/></clipPath><clipPath id="f0291ca261"><path d="M 0.480469 0.480469 L 42.238281 0.480469 L 42.238281 22 L 0.480469 22 Z M 0.480469 0.480469 "/></clipPath><clipPath id="023d8b8549"><path d="M 24.625 33.34375 L 0.710938 15.867188 L 18.1875 -8.042969 L 42.101562 9.433594 Z M 24.625 33.34375 "/></clipPath><clipPath id="17ef448d30"><path d="M 42.101562 9.433594 C 37.496094 15.730469 30.445312 20.023438 22.738281 21.222656 C 15.03125 22.421875 7.011719 20.46875 0.710938 15.867188 L 9.628906 3.667969 C 12.714844 5.921875 16.640625 6.878906 20.417969 6.292969 C 24.191406 5.703125 27.648438 3.601562 29.902344 0.515625 Z M 42.101562 9.433594 "/></clipPath><clipPath id="91fdb7c2d8"><rect x="0" width="43" y="0" height="22"/></clipPath></defs><g id="dfb4340753"><g style="fill:#5ce1e6;fill-opacity:1;"><g transform="translate(19.907816, 211.499986)"><path style="stroke:none" d="M 33.171875 -76.5625 C 37.242188 -76.5625 41.222656 -75.96875 45.109375 -74.78125 C 49.003906 -73.59375 51.890625 -72.421875 53.765625 -71.265625 L 56.5 -69.453125 L 49.578125 -55.78125 C 49.035156 -56.144531 48.273438 -56.613281 47.296875 -57.1875 C 46.328125 -57.769531 44.503906 -58.546875 41.828125 -59.515625 C 39.160156 -60.484375 36.671875 -60.96875 34.359375 -60.96875 C 31.503906 -60.96875 29.300781 -60.359375 27.75 -59.140625 C 26.195312 -57.929688 25.421875 -56.296875 25.421875 -54.234375 C 25.421875 -53.191406 25.785156 -52.226562 26.515625 -51.34375 C 27.242188 -50.46875 28.488281 -49.53125 30.25 -48.53125 C 32.019531 -47.53125 33.570312 -46.722656 34.90625 -46.109375 C 36.238281 -45.503906 38.304688 -44.597656 41.109375 -43.390625 C 45.960938 -41.316406 50.101562 -38.503906 53.53125 -34.953125 C 56.96875 -31.398438 58.6875 -27.375 58.6875 -22.875 C 58.6875 -18.5625 57.910156 -14.796875 56.359375 -11.578125 C 54.816406 -8.359375 52.691406 -5.835938 49.984375 -4.015625 C 47.285156 -2.191406 44.296875 -0.84375 41.015625 0.03125 C 37.734375 0.914062 34.175781 1.359375 30.34375 1.359375 C 27.0625 1.359375 23.84375 1.023438 20.6875 0.359375 C 17.53125 -0.304688 14.882812 -1.140625 12.75 -2.140625 C 10.625 -3.140625 8.710938 -4.125 7.015625 -5.09375 C 5.316406 -6.070312 4.070312 -6.894531 3.28125 -7.5625 L 2.09375 -8.5625 L 10.65625 -22.96875 C 11.382812 -22.363281 12.382812 -21.585938 13.65625 -20.640625 C 14.9375 -19.703125 17.203125 -18.441406 20.453125 -16.859375 C 23.710938 -15.273438 26.585938 -14.484375 29.078125 -14.484375 C 36.304688 -14.484375 39.921875 -16.945312 39.921875 -21.875 C 39.921875 -22.90625 39.660156 -23.859375 39.140625 -24.734375 C 38.628906 -25.617188 37.71875 -26.5 36.40625 -27.375 C 35.101562 -28.257812 33.945312 -28.960938 32.9375 -29.484375 C 31.9375 -30.003906 30.296875 -30.796875 28.015625 -31.859375 C 25.742188 -32.921875 24.0625 -33.722656 22.96875 -34.265625 C 18.40625 -36.515625 14.878906 -39.320312 12.390625 -42.6875 C 9.898438 -46.0625 8.65625 -49.695312 8.65625 -53.59375 C 8.65625 -60.332031 11.144531 -65.84375 16.125 -70.125 C 21.113281 -74.414062 26.796875 -76.5625 33.171875 -76.5625 Z M 33.171875 -76.5625 "/></g></g><g style="fill:#5ce1e6;fill-opacity:1;"><g transform="translate(80.604791, 211.499986)"><path style="stroke:none" d="M 34.171875 0 L 23.234375 0 L -1.828125 -46.75 L 16.765625 -46.75 L 28.15625 -21.515625 L 39.375 -46.75 L 50.484375 -46.75 L 61.703125 -21.515625 L 73.09375 -46.75 L 91.6875 -46.75 L 66.625 0 L 55.6875 0 L 44.9375 -24.15625 Z M 34.171875 0 "/></g></g><g style="fill:#5ce1e6;fill-opacity:1;"><g transform="translate(170.465511, 211.499986)"><path style="stroke:none" d="M 7.015625 -72.8125 C 8.898438 -74.695312 11.148438 -75.640625 13.765625 -75.640625 C 16.378906 -75.640625 18.625 -74.695312 20.5 -72.8125 C 22.382812 -70.9375 23.328125 -68.691406 23.328125 -66.078125 C 23.328125 -63.460938 22.382812 -61.210938 20.5 -59.328125 C 18.625 -57.441406 16.378906 -56.5 13.765625 -56.5 C 11.148438 -56.5 8.898438 -57.441406 7.015625 -59.328125 C 5.128906 -61.210938 4.1875 -63.460938 4.1875 -66.078125 C 4.1875 -68.691406 5.128906 -70.9375 7.015625 -72.8125 Z M 5.46875 -46.75 L 5.46875 0 L 21.59375 0 L 21.59375 -46.75 Z M 5.46875 -46.75 "/></g></g><g style="fill:#5ce1e6;fill-opacity:1;"><g transform="translate(197.988768, 211.499986)"><path style="stroke:none" d="M 8.203125 -46.75 L 8.203125 -56.6875 C 8.265625 -63.675781 9.90625 -69.265625 13.125 -73.453125 C 16.34375 -77.648438 20.804688 -79.75 26.515625 -79.75 C 28.953125 -79.75 31.28125 -79.398438 33.5 -78.703125 C 35.71875 -78.003906 37.3125 -77.289062 38.28125 -76.5625 L 39.828125 -75.5625 L 34.171875 -64.15625 C 32.710938 -65.007812 31.101562 -65.4375 29.34375 -65.4375 C 27.34375 -65.4375 26.003906 -64.753906 25.328125 -63.390625 C 24.660156 -62.023438 24.328125 -59.640625 24.328125 -56.234375 L 24.328125 -46.75 L 35.09375 -46.75 L 35.09375 -34.453125 L 24.328125 -34.453125 L 24.328125 0 L 8.203125 0 L 8.203125 -34.453125 L 1.453125 -34.453125 L 1.453125 -46.75 Z M 8.203125 -46.75 "/></g></g><g style="fill:#5ce1e6;fill-opacity:1;"><g transform="translate(232.164989, 211.499986)"><path style="stroke:none" d="M 8.203125 -46.75 L 8.203125 -64.15625 L 24.328125 -64.15625 L 24.328125 -46.75 L 34.171875 -46.75 L 34.171875 -34.453125 L 24.328125 -34.453125 L 24.328125 -19.59375 C 24.328125 -15.28125 25.546875 -13.125 27.984375 -13.125 C 28.585938 -13.125 29.222656 -13.242188 29.890625 -13.484375 C 30.554688 -13.734375 31.070312 -13.976562 31.4375 -14.21875 L 31.984375 -14.578125 L 36 -1.546875 C 32.539062 0.390625 28.59375 1.359375 24.15625 1.359375 C 21.113281 1.359375 18.5 0.828125 16.3125 -0.234375 C 14.125 -1.296875 12.46875 -2.722656 11.34375 -4.515625 C 10.21875 -6.304688 9.410156 -8.1875 8.921875 -10.15625 C 8.441406 -12.132812 8.203125 -14.25 8.203125 -16.5 L 8.203125 -34.453125 L 1.453125 -34.453125 L 1.453125 -46.75 Z M 8.203125 -46.75 "/></g></g><g style="fill:#5ce1e6;fill-opacity:1;"><g transform="translate(268.163979, 211.499986)"><path style="stroke:none" d="M 5.46875 0 L 5.46875 -78.375 L 21.59375 -78.375 L 21.59375 0 Z M 5.46875 0 "/></g></g><g style="fill:#5ce1e6;fill-opacity:1;"><g transform="translate(294.684699, 211.499986)"><path style="stroke:none" d="M 40.921875 -46.75 L 59.515625 -46.75 L 22.78125 23.703125 L 4.1875 23.703125 L 20.328125 -7.296875 L -1.828125 -46.75 L 16.765625 -46.75 L 29.796875 -22.78125 Z M 40.921875 -46.75 "/></g></g><g clip-rule="nonzero" clip-path="url(#951505c26f)"><g clip-rule="nonzero" clip-path="url(#51a45f9f96)"><g clip-rule="nonzero" clip-path="url(#bb6d4ae5a1)"><g transform="matrix(1,0,0,1,66,138)"><g clip-path="url(#91fdb7c2d8)"><g clip-rule="nonzero" clip-path="url(#f0291ca261)"><g clip-rule="nonzero" clip-path="url(#023d8b8549)"><g clip-rule="nonzero" clip-path="url(#17ef448d30)"><path style=" stroke:none;fill-rule:nonzero;fill:#5ce1e6;fill-opacity:1;" d="M 24.625 33.34375 L 0.710938 15.867188 L 18.1875 -8.042969 L 42.101562 9.433594 Z M 24.625 33.34375 "/></g></g></g></g></g></g></g></g></g></svg>