<svg xmlns="http://www.w3.org/2000/svg" xmlns:xlink="http://www.w3.org/1999/xlink" width="500" zoomAndPan="magnify" viewBox="0 0 375 374.999991" height="500" preserveAspectRatio="xMidYMid meet" version="1.0"><defs><clipPath id="f8543b1529"><path d="M 0 372 L 3 372 L 3 374.738281 L 0 374.738281 Z M 0 372 " clip-rule="nonzero"/></clipPath><clipPath id="aa9ba6cd22"><path d="M 1 371 L 3.75 371 L 3.75 374 L 1 374 Z M 1 371 " clip-rule="nonzero"/></clipPath><clipPath id="a4daad7a98"><path d="M 1 372 L 3.75 372 L 3.75 374.738281 L 1 374.738281 Z M 1 372 " clip-rule="nonzero"/></clipPath></defs><g clip-path="url(#f8543b1529)"><path fill="#000000" d="M 0.191406 374.546875 C 0.00390625 374.359375 0.00390625 374.058594 0.191406 373.871094 L 1.410156 372.652344 C 1.4375 372.625 1.480469 372.625 1.511719 372.652344 L 2.085938 373.230469 C 2.113281 373.257812 2.113281 373.300781 2.085938 373.328125 L 0.867188 374.546875 C 0.679688 374.734375 0.378906 374.734375 0.191406 374.546875 Z M 1.460938 372.804688 L 0.292969 373.972656 C 0.164062 374.101562 0.164062 374.316406 0.292969 374.445312 C 0.425781 374.578125 0.636719 374.578125 0.765625 374.445312 L 1.933594 373.277344 Z M 1.460938 372.804688 " fill-opacity="1" fill-rule="nonzero"/></g><path fill="#000000" d="M 1.746094 373.570312 L 1.171875 372.996094 C 1.140625 372.964844 1.140625 372.921875 1.171875 372.894531 C 1.199219 372.867188 1.242188 372.867188 1.269531 372.894531 L 1.84375 373.46875 C 1.875 373.496094 1.875 373.542969 1.84375 373.570312 C 1.816406 373.597656 1.773438 373.597656 1.746094 373.570312 Z M 1.746094 373.570312 " fill-opacity="1" fill-rule="nonzero"/><path fill="#000000" d="M 1.492188 373.820312 L 0.917969 373.246094 C 0.890625 373.21875 0.890625 373.175781 0.917969 373.144531 C 0.945312 373.117188 0.992188 373.117188 1.019531 373.144531 L 1.59375 373.71875 C 1.621094 373.75 1.621094 373.792969 1.59375 373.820312 C 1.566406 373.847656 1.519531 373.847656 1.492188 373.820312 Z M 1.492188 373.820312 " fill-opacity="1" fill-rule="nonzero"/><g clip-path="url(#aa9ba6cd22)"><path fill="#000000" d="M 1.855469 373.203125 L 1.535156 372.882812 C 1.507812 372.855469 1.507812 372.808594 1.535156 372.78125 L 2.734375 371.585938 L 2.792969 371.410156 C 2.796875 371.394531 2.804688 371.382812 2.820312 371.375 L 3.265625 371.054688 C 3.292969 371.035156 3.332031 371.039062 3.359375 371.0625 L 3.675781 371.382812 C 3.703125 371.40625 3.703125 371.445312 3.683594 371.472656 L 3.367188 371.921875 C 3.355469 371.933594 3.34375 371.941406 3.328125 371.945312 L 3.15625 372.003906 L 1.957031 373.203125 C 1.929688 373.230469 1.882812 373.230469 1.855469 373.203125 Z M 1.6875 372.832031 L 1.90625 373.050781 L 3.066406 371.890625 C 3.074219 371.882812 3.082031 371.878906 3.09375 371.875 L 3.261719 371.816406 L 3.53125 371.441406 L 3.300781 371.207031 L 2.921875 371.476562 L 2.863281 371.644531 C 2.859375 371.65625 2.855469 371.664062 2.847656 371.671875 Z M 1.6875 372.832031 " fill-opacity="1" fill-rule="nonzero"/></g><g clip-path="url(#a4daad7a98)"><path fill="#000000" d="M 2.648438 374.507812 C 2.476562 374.335938 2.421875 374.078125 2.507812 373.851562 L 1.855469 373.203125 C 1.828125 373.175781 1.828125 373.128906 1.855469 373.101562 C 1.882812 373.074219 1.929688 373.074219 1.957031 373.101562 L 2.632812 373.777344 C 2.660156 373.804688 2.667969 373.84375 2.652344 373.878906 C 2.570312 374.054688 2.609375 374.265625 2.75 374.40625 C 2.863281 374.519531 3.03125 374.566406 3.1875 374.53125 L 2.96875 374.3125 C 2.941406 374.285156 2.941406 374.242188 2.96875 374.214844 L 3.222656 373.957031 C 3.253906 373.929688 3.296875 373.929688 3.324219 373.957031 L 3.542969 374.175781 C 3.578125 374.019531 3.53125 373.851562 3.417969 373.738281 C 3.277344 373.597656 3.066406 373.558594 2.890625 373.640625 C 2.855469 373.65625 2.816406 373.648438 2.789062 373.621094 L 2.113281 372.945312 C 2.085938 372.917969 2.085938 372.871094 2.113281 372.84375 C 2.140625 372.816406 2.183594 372.816406 2.214844 372.84375 L 2.863281 373.496094 C 3.089844 373.410156 3.347656 373.464844 3.515625 373.636719 C 3.703125 373.820312 3.75 374.101562 3.636719 374.335938 C 3.617188 374.378906 3.558594 374.390625 3.523438 374.355469 L 3.273438 374.109375 L 3.121094 374.261719 L 3.367188 374.511719 C 3.402344 374.546875 3.390625 374.605469 3.347656 374.625 C 3.113281 374.738281 2.832031 374.6875 2.648438 374.507812 Z M 2.648438 374.507812 " fill-opacity="1" fill-rule="nonzero"/></g><path fill="#000000" d="M 1.535156 372.882812 L 0.886719 372.230469 C 0.660156 372.316406 0.402344 372.261719 0.234375 372.089844 C 0.046875 371.90625 0 371.625 0.113281 371.390625 C 0.132812 371.347656 0.191406 371.335938 0.226562 371.371094 L 0.476562 371.621094 L 0.628906 371.464844 L 0.382812 371.214844 C 0.347656 371.179688 0.359375 371.121094 0.402344 371.101562 C 0.636719 370.988281 0.917969 371.039062 1.101562 371.222656 C 1.273438 371.390625 1.328125 371.652344 1.242188 371.875 L 1.894531 372.527344 C 1.921875 372.554688 1.921875 372.597656 1.894531 372.625 C 1.867188 372.65625 1.820312 372.65625 1.792969 372.625 L 1.117188 371.949219 C 1.089844 371.921875 1.082031 371.882812 1.097656 371.851562 C 1.179688 371.671875 1.140625 371.460938 1 371.324219 C 0.886719 371.207031 0.71875 371.160156 0.5625 371.195312 L 0.78125 371.414062 C 0.808594 371.441406 0.808594 371.488281 0.78125 371.515625 L 0.527344 371.769531 C 0.511719 371.785156 0.496094 371.792969 0.476562 371.792969 C 0.457031 371.792969 0.4375 371.785156 0.425781 371.769531 L 0.207031 371.554688 C 0.171875 371.707031 0.21875 371.875 0.332031 371.992188 C 0.472656 372.128906 0.683594 372.167969 0.859375 372.085938 C 0.894531 372.070312 0.933594 372.078125 0.960938 372.105469 L 1.636719 372.78125 C 1.664062 372.808594 1.664062 372.855469 1.636719 372.882812 C 1.609375 372.910156 1.566406 372.910156 1.535156 372.882812 Z M 1.535156 372.882812 " fill-opacity="1" fill-rule="nonzero"/><path fill="#b38d61" d="M 40.699219 99.523438 C 40.699219 99.523438 168.878906 44.1875 233.496094 28.601562 C 247.148438 25.3125 233.734375 15.597656 241.464844 12.652344 C 243.542969 11.859375 250.566406 28.519531 261.746094 48.949219 C 292.078125 104.375 344.347656 206.554688 345.777344 207.65625 C 348.898438 210.054688 347.382812 212.132812 346.695312 218.097656 C 344.519531 236.90625 343.648438 256.566406 342.042969 263.980469 C 341.039062 268.636719 333.375 271.078125 330.65625 272.605469 C 329.164062 273.441406 327.800781 226.921875 326.296875 227.730469 C 324.453125 228.722656 322.597656 229.695312 320.730469 230.640625 C 317.769531 232.136719 314.765625 233.554688 311.710938 234.863281 C 308.136719 236.394531 304.496094 237.773438 300.832031 239.070312 C 295.699219 240.890625 290.507812 242.554688 285.332031 244.25 C 282.175781 245.28125 278.933594 246.238281 275.707031 247.25 C 273.796875 248.144531 272.113281 248.945312 270.765625 249.648438 C 236.597656 267.484375 200.175781 284.21875 166.972656 304.089844 C 163.644531 312.640625 160.015625 321.089844 156.050781 329.355469 C 153.5 334.675781 150.824219 339.964844 147.734375 344.996094 C 146.003906 347.820312 138.816406 351.675781 135.96875 353.40625 C 120.390625 362.855469 115.371094 336.402344 113.804688 324.207031 C 113.3125 320.363281 113.019531 316.484375 112.71875 312.621094 C 112.34375 307.765625 112.203125 302.886719 111.777344 298.03125 C 111.472656 294.535156 111.214844 290.847656 110.699219 287.21875 C 101.460938 275.804688 93.644531 241.113281 87.464844 228.476562 C 75.292969 203.589844 56.953125 181.5 49.179688 154.539062 C 47.566406 148.945312 46.480469 141.015625 46.726562 132.957031 C 46.578125 132.738281 46.445312 132.523438 46.324219 132.339844 C 44.789062 130.035156 43.523438 127.5625 42.277344 125.09375 C 41.511719 123.574219 40.757812 122.050781 39.96875 120.546875 C 39.261719 119.207031 38.542969 117.878906 37.832031 116.542969 C 37.351562 115.652344 36.863281 114.765625 36.378906 113.878906 C 35.992188 113.179688 35.613281 112.480469 35.265625 111.761719 C 33.730469 108.617188 31.839844 103.199219 35.402344 100.730469 C 35.792969 100.457031 36.242188 100.234375 36.699219 100.089844 C 37.957031 99.6875 39.382812 99.601562 40.699219 99.523438 " fill-opacity="1" fill-rule="evenodd"/><path fill="#c79d6d" d="M 34.882812 101.320312 C 48.199219 129.589844 135.707031 301.867188 135.707031 301.867188 L 342.738281 210.175781 C 342.738281 210.175781 243.625 17.0625 239.992188 13.515625 L 34.882812 101.320312 " fill-opacity="1" fill-rule="evenodd"/><path fill="#c79d6d" d="M 34.269531 106.445312 C 33.886719 120.746094 25.734375 140.445312 28.078125 154.40625 C 29.546875 163.171875 34.394531 171.535156 37.929688 179.578125 C 43.449219 192.132812 48.90625 204.628906 54.910156 216.964844 C 67.492188 242.820312 78.472656 269.476562 90.359375 295.664062 C 97.804688 312.066406 105.515625 328.316406 115.234375 343.523438 C 116.875 346.089844 121.570312 357.003906 125.929688 355.492188 C 128.421875 354.628906 131.414062 312.488281 132.398438 303.660156 L 34.269531 106.445312 " fill-opacity="1" fill-rule="evenodd"/><path fill="#c79d6d" d="M 137.808594 304.796875 C 135.335938 316.828125 132.441406 353.722656 134.289062 355.246094 C 137.386719 357.804688 154.300781 349.96875 157.730469 348.90625 C 180.367188 341.917969 202.796875 334.0625 224.695312 325.003906 C 253.949219 312.90625 282.769531 299.046875 310.6875 284.121094 C 314.710938 281.96875 336.5625 271.804688 338.410156 267.753906 C 340.761719 262.613281 340.296875 254.886719 340.847656 249.402344 C 342.054688 237.460938 343.613281 225.542969 345.050781 213.628906 L 137.808594 304.796875 " fill-opacity="1" fill-rule="evenodd"/><path fill="#763b01" d="M 190.285156 155.144531 C 165.734375 108.953125 141.222656 63.214844 137.347656 56.433594 C 136.824219 55.519531 137.144531 54.355469 138.054688 53.835938 C 138.96875 53.3125 140.132812 53.628906 140.652344 54.542969 C 144.542969 61.355469 169.140625 107.304688 193.777344 153.695312 C 240.464844 134.363281 286 115.613281 293.667969 112.828125 C 294.65625 112.46875 295.746094 112.976562 296.105469 113.964844 C 296.464844 114.953125 295.957031 116.046875 294.96875 116.40625 C 287.332031 119.183594 242.074219 137.816406 195.570312 157.074219 C 221.609375 206.128906 247.140625 254.652344 247.722656 256.890625 C 248.289062 259.050781 248.371094 264.394531 248.140625 271.144531 C 247.636719 286.269531 245.757812 308.738281 245.757812 316.84375 C 245.757812 317.894531 244.90625 318.746094 243.855469 318.746094 C 242.804688 318.746094 241.953125 317.894531 241.953125 316.84375 C 241.953125 308.714844 243.828125 286.183594 244.335938 271.019531 C 244.546875 264.785156 244.558594 259.847656 244.039062 257.851562 C 243.460938 255.625 218.027344 207.34375 192.082031 158.519531 C 142.113281 179.214844 91.742188 200.1875 85.988281 202.585938 C 84.5 204.980469 77.410156 217.40625 70.117188 247.3125 C 69.867188 248.335938 68.835938 248.960938 67.816406 248.714844 C 66.796875 248.464844 66.167969 247.433594 66.417969 246.410156 C 74.863281 211.78125 83.148438 199.96875 83.148438 199.96875 C 83.355469 199.667969 83.644531 199.4375 83.976562 199.296875 C 83.976562 199.296875 137.292969 177.089844 190.285156 155.144531 " fill-opacity="1" fill-rule="evenodd"/><path fill="#ead9c7" d="M 202.050781 137.753906 C 198.925781 142.253906 180.292969 176.3125 180.292969 176.3125 L 257.144531 203.488281 C 257.144531 203.488281 269.972656 173.683594 274.808594 162.3125 L 202.050781 137.753906 " fill-opacity="1" fill-rule="evenodd"/><path fill="#ffffff" d="M 145.765625 203.8125 C 151.339844 199.574219 159.742188 197.5 165.921875 196.140625 C 173.09375 194.5625 183.167969 195.964844 188.574219 201.398438 C 204.191406 217.101562 204.234375 233.15625 193.175781 249.09375 C 180.777344 266.957031 148.730469 267.238281 138.972656 250.871094 C 134.183594 242.832031 131.34375 229.414062 132.476562 221.574219 C 133.546875 214.15625 140.191406 208.050781 145.765625 203.8125 " fill-opacity="1" fill-rule="evenodd"/><path fill="#91692b" d="M 234.050781 191.34375 C 234.152344 191.113281 234.28125 190.785156 234.441406 190.367188 C 234.597656 189.945312 234.726562 189.628906 234.820312 189.410156 C 234.828125 189.390625 234.832031 189.371094 234.824219 189.351562 C 234.820312 189.332031 234.8125 189.316406 234.792969 189.300781 C 234.6875 189.191406 234.585938 189.082031 234.488281 188.96875 C 234.390625 188.855469 234.292969 188.726562 234.191406 188.585938 C 234.089844 188.445312 234.023438 188.3125 233.992188 188.183594 C 233.957031 188.054688 233.972656 187.953125 234.03125 187.878906 C 234.070312 187.832031 234.113281 187.792969 234.15625 187.765625 C 234.25 187.714844 234.359375 187.714844 234.492188 187.761719 C 234.625 187.8125 234.746094 187.886719 234.855469 187.988281 C 234.96875 188.089844 235.054688 188.191406 235.113281 188.292969 C 235.125 188.316406 235.144531 188.332031 235.171875 188.339844 C 235.199219 188.347656 235.226562 188.34375 235.25 188.328125 L 235.285156 188.28125 C 235.324219 188.1875 235.414062 187.976562 235.558594 187.652344 C 235.703125 187.328125 235.800781 187.09375 235.859375 186.949219 C 235.914062 186.820312 235.988281 186.738281 236.085938 186.703125 C 236.183594 186.667969 236.28125 186.667969 236.378906 186.707031 C 236.476562 186.746094 236.550781 186.816406 236.59375 186.914062 C 236.640625 187.007812 236.636719 187.117188 236.582031 187.242188 C 236.355469 187.789062 236.113281 188.371094 235.851562 188.988281 C 235.839844 189.011719 235.839844 189.035156 235.84375 189.054688 C 235.851562 189.074219 235.863281 189.09375 235.882812 189.105469 C 236.105469 189.269531 236.308594 189.410156 236.492188 189.53125 C 236.675781 189.652344 236.859375 189.765625 237.042969 189.871094 C 237.226562 189.976562 237.394531 190.066406 237.550781 190.140625 C 237.703125 190.210938 237.859375 190.273438 238.011719 190.320312 C 238.167969 190.371094 238.3125 190.402344 238.445312 190.414062 C 238.582031 190.425781 238.714844 190.421875 238.847656 190.402344 C 238.980469 190.386719 239.105469 190.351562 239.230469 190.296875 C 239.453125 190.207031 239.632812 190.046875 239.773438 189.824219 C 239.90625 189.601562 240.003906 189.347656 240.054688 189.066406 C 240.105469 188.78125 240.132812 188.472656 240.132812 188.132812 C 240.132812 187.796875 240.113281 187.46875 240.074219 187.15625 C 240.03125 186.84375 239.984375 186.539062 239.929688 186.242188 C 239.871094 185.945312 239.820312 185.703125 239.773438 185.515625 C 239.726562 185.328125 239.6875 185.1875 239.652344 185.089844 C 239.617188 184.953125 239.621094 184.839844 239.664062 184.75 C 239.710938 184.664062 239.785156 184.605469 239.886719 184.570312 C 239.988281 184.539062 240.085938 184.539062 240.175781 184.582031 C 240.265625 184.621094 240.339844 184.707031 240.394531 184.839844 C 240.503906 185.164062 240.601562 185.535156 240.691406 185.957031 C 240.78125 186.382812 240.84375 186.867188 240.882812 187.417969 C 240.917969 187.964844 240.910156 188.480469 240.851562 188.960938 C 240.792969 189.441406 240.640625 189.882812 240.402344 190.289062 C 240.160156 190.695312 239.832031 190.980469 239.417969 191.136719 C 239.042969 191.277344 238.601562 191.285156 238.097656 191.160156 C 237.589844 191.035156 237.058594 190.773438 236.5 190.382812 C 236.488281 190.371094 236.476562 190.363281 236.460938 190.363281 C 236.449219 190.363281 236.433594 190.363281 236.421875 190.367188 C 236.410156 190.367188 236.398438 190.375 236.390625 190.378906 C 236.378906 190.386719 236.375 190.398438 236.367188 190.414062 C 236.359375 190.417969 236.351562 190.425781 236.351562 190.433594 C 236.351562 190.441406 236.347656 190.453125 236.347656 190.464844 C 236.347656 190.476562 236.351562 190.484375 236.355469 190.492188 C 236.363281 190.5 236.363281 190.507812 236.367188 190.515625 L 237.046875 191.417969 C 237.113281 191.535156 237.125 191.648438 237.085938 191.761719 C 237.042969 191.875 236.976562 191.949219 236.882812 191.992188 C 236.816406 192.019531 236.746094 192.035156 236.675781 192.03125 C 236.605469 192.03125 236.53125 191.996094 236.445312 191.929688 C 236.363281 191.863281 236.292969 191.761719 236.230469 191.628906 L 236.226562 191.621094 C 235.914062 191.117188 235.644531 190.707031 235.414062 190.386719 C 235.398438 190.363281 235.375 190.347656 235.347656 190.347656 C 235.320312 190.34375 235.292969 190.355469 235.273438 190.371094 C 235.257812 190.378906 235.246094 190.390625 235.242188 190.40625 C 235.1875 190.542969 235.109375 190.746094 235.011719 191.019531 C 234.917969 191.296875 234.835938 191.507812 234.769531 191.660156 C 234.710938 191.785156 234.636719 191.867188 234.535156 191.90625 C 234.4375 191.941406 234.339844 191.933594 234.242188 191.886719 C 234.179688 191.863281 234.128906 191.824219 234.085938 191.777344 C 234.042969 191.726562 234.019531 191.664062 234.011719 191.589844 C 234 191.511719 234.015625 191.429688 234.050781 191.34375 " fill-opacity="1" fill-rule="nonzero"/><path fill="#91692b" d="M 239.714844 184.878906 C 238.664062 184.332031 237.78125 183.804688 237.070312 183.292969 C 236.363281 182.78125 235.808594 182.21875 235.410156 181.605469 C 235.347656 181.5 235.292969 181.390625 235.246094 181.285156 C 235.203125 181.179688 235.164062 181.078125 235.140625 180.976562 C 235.113281 180.875 235.101562 180.773438 235.09375 180.679688 C 235.089844 180.582031 235.09375 180.488281 235.105469 180.398438 C 235.117188 180.308594 235.140625 180.222656 235.167969 180.140625 C 235.292969 179.800781 235.53125 179.558594 235.878906 179.417969 C 236.222656 179.273438 236.628906 179.285156 237.097656 179.449219 C 237.234375 179.5 237.371094 179.570312 237.5 179.664062 C 237.632812 179.757812 237.753906 179.851562 237.863281 179.941406 C 237.96875 180.035156 238.082031 180.164062 238.199219 180.328125 C 238.316406 180.492188 238.417969 180.628906 238.492188 180.742188 C 238.570312 180.855469 238.664062 181.019531 238.777344 181.238281 C 238.890625 181.457031 238.972656 181.621094 239.027344 181.730469 C 239.078125 181.839844 239.160156 182.019531 239.265625 182.273438 C 239.371094 182.527344 239.441406 182.695312 239.476562 182.777344 C 239.511719 182.859375 239.582031 183.03125 239.683594 183.289062 C 239.839844 183.679688 239.960938 183.972656 240.050781 184.164062 C 240.058594 184.183594 240.070312 184.199219 240.089844 184.210938 C 240.15625 184.238281 240.324219 184.324219 240.597656 184.457031 C 240.621094 184.46875 240.648438 184.46875 240.675781 184.457031 C 240.703125 184.449219 240.71875 184.433594 240.726562 184.40625 C 240.746094 184.371094 240.742188 184.335938 240.714844 184.304688 C 240.4375 183.957031 240.210938 183.570312 240.039062 183.140625 C 239.851562 182.675781 239.761719 182.230469 239.769531 181.804688 C 239.773438 181.378906 239.890625 181.035156 240.113281 180.773438 C 240.273438 180.585938 240.457031 180.480469 240.65625 180.449219 C 240.855469 180.421875 241.058594 180.453125 241.261719 180.539062 C 241.46875 180.628906 241.667969 180.726562 241.867188 180.835938 C 242.066406 180.949219 242.277344 181.042969 242.5 181.121094 C 242.726562 181.195312 242.921875 181.21875 243.097656 181.179688 C 243.097656 181.175781 243.101562 181.175781 243.105469 181.179688 C 243.148438 181.164062 243.1875 181.148438 243.21875 181.128906 C 243.734375 180.855469 243.875 180.136719 243.632812 178.960938 C 243.535156 178.476562 243.425781 178.09375 243.300781 177.804688 C 243.296875 177.792969 243.289062 177.785156 243.285156 177.78125 C 243.222656 177.660156 243.210938 177.546875 243.242188 177.445312 C 243.277344 177.339844 243.339844 177.265625 243.429688 177.222656 C 243.523438 177.171875 243.617188 177.15625 243.714844 177.1875 C 243.808594 177.210938 243.898438 177.289062 243.972656 177.410156 C 244.070312 177.582031 244.15625 177.789062 244.238281 178.027344 C 244.320312 178.265625 244.398438 178.527344 244.464844 178.808594 C 244.535156 179.09375 244.578125 179.382812 244.59375 179.679688 C 244.613281 179.976562 244.601562 180.257812 244.566406 180.523438 C 244.53125 180.789062 244.453125 181.035156 244.324219 181.261719 C 244.195312 181.488281 244.027344 181.660156 243.8125 181.789062 C 243.660156 181.875 243.519531 181.9375 243.390625 181.972656 C 243.261719 182.007812 243.125 182.019531 242.988281 182.011719 C 242.847656 182.003906 242.699219 181.972656 242.542969 181.925781 C 242.382812 181.875 242.207031 181.804688 242.011719 181.714844 C 241.8125 181.621094 241.589844 181.515625 241.339844 181.386719 C 240.996094 181.207031 240.753906 181.210938 240.609375 181.390625 C 240.457031 181.570312 240.433594 181.882812 240.542969 182.324219 C 240.648438 182.769531 240.839844 183.222656 241.121094 183.683594 C 241.398438 184.148438 241.699219 184.507812 242.019531 184.761719 C 242.058594 184.8125 242.085938 184.867188 242.101562 184.925781 C 242.121094 184.984375 242.132812 185.042969 242.132812 185.109375 C 242.140625 185.25 242.097656 185.371094 242.003906 185.476562 C 241.914062 185.582031 241.800781 185.636719 241.660156 185.636719 C 241.332031 185.644531 240.910156 185.511719 240.402344 185.246094 C 240.398438 185.246094 240.167969 185.121094 239.714844 184.878906 Z M 239.054688 183.4375 C 238.757812 182.71875 238.414062 182.058594 238.023438 181.460938 C 237.324219 180.386719 236.710938 180.019531 236.1875 180.359375 C 236.121094 180.40625 236.070312 180.457031 236.035156 180.519531 C 235.972656 180.625 235.957031 180.753906 235.996094 180.90625 C 236.035156 181.058594 236.113281 181.210938 236.230469 181.367188 C 236.34375 181.523438 236.492188 181.691406 236.664062 181.867188 C 236.839844 182.046875 237.027344 182.214844 237.222656 182.375 C 237.417969 182.53125 237.621094 182.6875 237.832031 182.84375 C 238.046875 183 238.238281 183.132812 238.417969 183.253906 C 238.597656 183.371094 238.761719 183.472656 238.914062 183.558594 C 238.9375 183.570312 238.960938 183.574219 238.992188 183.566406 C 239.015625 183.558594 239.035156 183.542969 239.046875 183.515625 C 239.058594 183.492188 239.0625 183.464844 239.054688 183.4375 " fill-opacity="1" fill-rule="nonzero"/><path fill="#91692b" d="M 243.984375 175.035156 C 243.949219 175.058594 243.917969 175.085938 243.886719 175.109375 C 243.613281 175.351562 243.464844 175.679688 243.4375 176.09375 C 243.414062 176.511719 243.5 176.828125 243.699219 177.054688 C 243.714844 177.078125 243.742188 177.097656 243.773438 177.117188 C 243.804688 177.132812 243.839844 177.136719 243.871094 177.128906 C 244.035156 177.085938 244.144531 176.839844 244.195312 176.386719 C 244.25 175.933594 244.226562 175.503906 244.125 175.097656 C 244.121094 175.066406 244.109375 175.046875 244.082031 175.035156 C 244.058594 175.023438 244.03125 175.019531 244.003906 175.03125 C 244 175.027344 243.996094 175.027344 243.992188 175.03125 C 243.984375 175.035156 243.984375 175.035156 243.984375 175.035156 Z M 244.09375 174.160156 C 244.089844 173.984375 244.125 173.835938 244.199219 173.703125 C 244.253906 173.609375 244.324219 173.550781 244.417969 173.535156 C 244.507812 173.515625 244.640625 173.550781 244.816406 173.648438 C 245.105469 173.800781 245.386719 173.890625 245.660156 173.910156 C 245.933594 173.929688 246.164062 173.878906 246.355469 173.753906 C 246.632812 173.574219 246.765625 173.292969 246.761719 172.898438 C 246.753906 172.503906 246.578125 172.042969 246.238281 171.515625 C 246.203125 171.433594 246.183594 171.363281 246.183594 171.296875 C 246.179688 171.230469 246.191406 171.179688 246.214844 171.136719 C 246.242188 171.097656 246.277344 171.0625 246.316406 171.035156 C 246.417969 170.976562 246.527344 170.960938 246.644531 170.988281 C 246.765625 171.019531 246.875 171.101562 246.976562 171.242188 C 246.976562 171.242188 246.976562 171.246094 246.980469 171.246094 C 247.101562 171.414062 247.207031 171.589844 247.292969 171.769531 C 247.378906 171.949219 247.441406 172.125 247.484375 172.296875 C 247.523438 172.46875 247.546875 172.640625 247.554688 172.816406 C 247.5625 172.988281 247.550781 173.152344 247.523438 173.308594 C 247.492188 173.460938 247.449219 173.613281 247.390625 173.757812 C 247.203125 174.175781 246.902344 174.460938 246.484375 174.613281 C 246.070312 174.765625 245.585938 174.722656 245.039062 174.480469 C 245.007812 174.46875 244.984375 174.46875 244.957031 174.480469 C 244.929688 174.492188 244.914062 174.511719 244.90625 174.539062 C 244.902344 174.546875 244.898438 174.558594 244.898438 174.570312 C 244.902344 174.644531 244.90625 174.773438 244.914062 174.957031 C 244.921875 175.136719 244.925781 175.277344 244.929688 175.371094 C 244.929688 175.46875 244.929688 175.589844 244.929688 175.738281 C 244.929688 175.886719 244.925781 176.023438 244.917969 176.152344 C 244.910156 176.277344 244.898438 176.402344 244.878906 176.523438 C 244.847656 176.710938 244.804688 176.882812 244.753906 177.039062 C 244.703125 177.199219 244.636719 177.347656 244.558594 177.484375 C 244.480469 177.621094 244.386719 177.730469 244.273438 177.8125 C 244.164062 177.894531 244.042969 177.9375 243.910156 177.949219 C 243.605469 177.976562 243.328125 177.839844 243.085938 177.539062 C 243.027344 177.46875 242.972656 177.386719 242.917969 177.292969 C 242.761719 176.992188 242.675781 176.652344 242.660156 176.265625 C 242.648438 175.886719 242.71875 175.511719 242.875 175.15625 C 243.03125 174.800781 243.296875 174.515625 243.675781 174.308594 C 243.726562 174.28125 243.777344 174.265625 243.828125 174.257812 C 243.875 174.25 243.925781 174.253906 243.972656 174.261719 C 243.988281 174.265625 244.003906 174.261719 244.019531 174.257812 C 244.039062 174.25 244.054688 174.242188 244.066406 174.226562 C 244.078125 174.214844 244.085938 174.199219 244.089844 174.183594 C 244.089844 174.179688 244.09375 174.171875 244.09375 174.160156 " fill-opacity="1" fill-rule="nonzero"/><path fill="#91692b" d="M 247.347656 170.691406 C 247.539062 170.933594 247.824219 171.117188 248.195312 171.234375 C 248.207031 171.234375 248.214844 171.234375 248.222656 171.238281 C 248.230469 171.242188 248.238281 171.246094 248.246094 171.25 C 248.328125 171.296875 248.375 171.375 248.382812 171.484375 C 248.390625 171.59375 248.363281 171.710938 248.296875 171.835938 C 248.234375 171.953125 248.160156 172.039062 248.074219 172.085938 C 247.984375 172.136719 247.902344 172.140625 247.828125 172.097656 C 247.453125 171.910156 246.621094 171.511719 245.332031 170.902344 C 245.210938 170.84375 245.132812 170.765625 245.097656 170.660156 C 245.0625 170.554688 245.066406 170.453125 245.113281 170.355469 C 245.140625 170.289062 245.179688 170.234375 245.230469 170.195312 C 245.28125 170.15625 245.34375 170.132812 245.414062 170.125 C 245.484375 170.117188 245.554688 170.128906 245.628906 170.164062 C 245.738281 170.21875 245.835938 170.261719 245.925781 170.304688 C 246.015625 170.34375 246.066406 170.367188 246.078125 170.375 C 246.09375 170.382812 246.109375 170.386719 246.132812 170.390625 C 246.15625 170.402344 246.179688 170.402344 246.207031 170.390625 C 246.230469 170.378906 246.25 170.359375 246.253906 170.332031 C 246.269531 170.292969 246.257812 170.257812 246.226562 170.230469 C 245.976562 170.023438 245.804688 169.769531 245.707031 169.472656 C 245.613281 169.171875 245.632812 168.875 245.761719 168.582031 C 245.863281 168.335938 245.988281 168.140625 246.128906 168 C 246.269531 167.859375 246.414062 167.769531 246.558594 167.734375 C 246.703125 167.699219 246.859375 167.691406 247.019531 167.703125 C 247.183594 167.722656 247.339844 167.757812 247.492188 167.820312 C 247.648438 167.886719 247.800781 167.949219 247.960938 168.007812 C 248.117188 168.066406 248.261719 168.117188 248.394531 168.167969 C 248.527344 168.214844 248.65625 168.230469 248.777344 168.222656 C 248.898438 168.214844 249.003906 168.167969 249.089844 168.082031 C 249.304688 167.871094 249.394531 167.628906 249.363281 167.363281 C 249.332031 167.09375 249.179688 166.773438 248.898438 166.402344 C 248.796875 166.269531 248.757812 166.136719 248.777344 166.003906 C 248.792969 165.871094 248.847656 165.78125 248.941406 165.734375 C 249.03125 165.667969 249.121094 165.640625 249.21875 165.65625 C 249.316406 165.667969 249.410156 165.726562 249.496094 165.832031 C 249.714844 166.136719 249.882812 166.429688 250 166.714844 C 250.117188 167.003906 250.175781 167.261719 250.179688 167.488281 C 250.183594 167.71875 250.152344 167.933594 250.085938 168.140625 C 250.015625 168.347656 249.910156 168.519531 249.773438 168.664062 C 249.613281 168.835938 249.441406 168.953125 249.25 169.023438 C 249.058594 169.089844 248.867188 169.109375 248.679688 169.078125 C 248.492188 169.046875 248.320312 169.003906 248.164062 168.945312 C 248.007812 168.890625 247.84375 168.824219 247.679688 168.75 C 247.515625 168.675781 247.398438 168.628906 247.332031 168.617188 C 246.972656 168.539062 246.722656 168.609375 246.578125 168.824219 C 246.417969 169.058594 246.417969 169.367188 246.578125 169.757812 C 246.742188 170.144531 246.996094 170.457031 247.347656 170.691406 " fill-opacity="1" fill-rule="nonzero"/><path fill="#91692b" d="M 249.523438 162.832031 C 249.453125 162.875 249.394531 162.9375 249.347656 163.019531 C 249.226562 163.222656 249.179688 163.511719 249.210938 163.882812 C 249.246094 164.25 249.332031 164.59375 249.472656 164.917969 C 249.609375 165.238281 249.757812 165.445312 249.914062 165.535156 C 249.9375 165.550781 249.964844 165.550781 249.992188 165.539062 C 250.019531 165.53125 250.039062 165.515625 250.046875 165.496094 C 250.148438 165.324219 250.160156 164.882812 250.085938 164.171875 C 250.070312 163.992188 250.050781 163.835938 250.027344 163.699219 C 250.003906 163.566406 249.976562 163.421875 249.9375 163.269531 C 249.898438 163.113281 249.847656 163 249.785156 162.921875 C 249.722656 162.847656 249.648438 162.808594 249.566406 162.816406 C 249.550781 162.820312 249.539062 162.824219 249.523438 162.832031 Z M 250.878906 164.78125 C 251.308594 164.675781 251.679688 164.539062 251.992188 164.367188 C 253.347656 163.660156 253.632812 162.410156 252.847656 160.621094 C 252.761719 160.421875 252.546875 160.003906 252.207031 159.359375 C 252.199219 159.347656 252.195312 159.335938 252.195312 159.328125 C 252.144531 159.25 252.125 159.171875 252.132812 159.09375 C 252.136719 159.019531 252.15625 158.957031 252.195312 158.902344 C 252.234375 158.847656 252.28125 158.808594 252.339844 158.78125 C 252.433594 158.726562 252.53125 158.714844 252.625 158.742188 C 252.722656 158.769531 252.808594 158.84375 252.878906 158.964844 C 253.4375 160.023438 253.796875 160.867188 253.960938 161.488281 C 254.28125 162.722656 254.070312 163.691406 253.328125 164.398438 C 252.777344 164.917969 251.941406 165.324219 250.8125 165.621094 C 250.796875 165.625 250.777344 165.632812 250.761719 165.652344 C 250.75 165.671875 250.742188 165.691406 250.746094 165.707031 C 250.742188 165.730469 250.738281 165.75 250.734375 165.769531 C 250.734375 165.789062 250.734375 165.808594 250.730469 165.832031 C 250.730469 165.855469 250.730469 165.875 250.726562 165.898438 C 250.722656 165.917969 250.722656 165.941406 250.722656 165.960938 C 250.722656 165.980469 250.71875 166 250.714844 166.019531 C 250.707031 166.066406 250.730469 166.097656 250.769531 166.117188 C 250.992188 166.238281 251.132812 166.308594 251.191406 166.335938 C 251.246094 166.359375 251.320312 166.394531 251.40625 166.4375 C 251.496094 166.480469 251.636719 166.554688 251.828125 166.65625 C 251.90625 166.703125 251.96875 166.757812 252.007812 166.828125 C 252.042969 166.894531 252.0625 166.960938 252.058594 167.019531 C 252.054688 167.082031 252.035156 167.144531 252.003906 167.210938 C 251.957031 167.300781 251.878906 167.363281 251.777344 167.394531 C 251.675781 167.429688 251.5625 167.410156 251.449219 167.34375 C 251.253906 167.238281 251.078125 167.144531 250.925781 167.0625 C 250.773438 166.984375 250.648438 166.921875 250.554688 166.878906 C 250.460938 166.835938 250.335938 166.773438 250.175781 166.695312 C 250.015625 166.613281 249.847656 166.527344 249.667969 166.433594 L 248.738281 165.921875 C 248.046875 165.535156 247.445312 165.1875 246.941406 164.871094 C 246.433594 164.550781 245.957031 164.207031 245.507812 163.839844 C 245.125 163.515625 244.804688 163.214844 244.542969 162.933594 C 244.277344 162.652344 244.085938 162.367188 243.964844 162.070312 C 243.949219 161.894531 243.941406 161.796875 243.941406 161.785156 C 243.957031 161.660156 243.992188 161.550781 244.050781 161.457031 C 244.144531 161.292969 244.316406 161.179688 244.554688 161.117188 C 244.796875 161.058594 245.050781 161.046875 245.332031 161.082031 C 245.609375 161.121094 245.882812 161.179688 246.148438 161.269531 C 246.417969 161.355469 246.644531 161.453125 246.832031 161.5625 C 247.015625 161.675781 247.179688 161.78125 247.324219 161.882812 C 247.472656 161.980469 247.609375 162.085938 247.738281 162.203125 C 247.863281 162.316406 247.984375 162.433594 248.097656 162.558594 C 248.210938 162.679688 248.320312 162.816406 248.425781 162.96875 C 248.441406 162.992188 248.460938 163.007812 248.488281 163.011719 C 248.515625 163.015625 248.539062 163.007812 248.5625 162.992188 C 248.582031 162.972656 248.59375 162.953125 248.597656 162.929688 C 248.621094 162.789062 248.65625 162.65625 248.699219 162.539062 C 248.738281 162.421875 248.789062 162.316406 248.847656 162.226562 C 248.984375 162.011719 249.152344 161.878906 249.34375 161.832031 C 249.535156 161.785156 249.738281 161.832031 249.960938 161.972656 C 250.105469 162.066406 250.238281 162.289062 250.363281 162.636719 C 250.492188 162.984375 250.585938 163.34375 250.648438 163.710938 C 250.707031 164.082031 250.746094 164.40625 250.757812 164.6875 C 250.761719 164.71875 250.777344 164.742188 250.804688 164.761719 C 250.832031 164.785156 250.855469 164.789062 250.878906 164.78125 Z M 248.382812 164.628906 C 248.257812 164.300781 248.082031 163.976562 247.863281 163.65625 C 247.648438 163.335938 247.390625 163.035156 247.09375 162.75 C 246.800781 162.46875 246.453125 162.242188 246.058594 162.074219 C 245.664062 161.90625 245.257812 161.828125 244.84375 161.84375 C 244.824219 161.847656 244.808594 161.855469 244.792969 161.863281 C 244.773438 161.871094 244.761719 161.886719 244.753906 161.898438 C 244.746094 161.917969 244.746094 161.933594 244.746094 161.953125 C 244.746094 161.964844 244.75 161.972656 244.75 161.980469 C 244.753906 161.988281 244.757812 161.992188 244.761719 161.996094 C 245.101562 162.476562 245.566406 162.9375 246.15625 163.378906 C 246.746094 163.820312 247.441406 164.273438 248.242188 164.742188 C 248.269531 164.757812 248.296875 164.761719 248.324219 164.753906 C 248.351562 164.742188 248.371094 164.726562 248.378906 164.703125 C 248.390625 164.683594 248.394531 164.65625 248.382812 164.628906 " fill-opacity="1" fill-rule="nonzero"/><path fill="#91692b" d="M 244.035156 194.292969 C 244.191406 194.703125 244.394531 195.023438 244.640625 195.261719 C 244.886719 195.5 245.140625 195.640625 245.40625 195.683594 C 245.632812 195.71875 245.828125 195.679688 245.996094 195.5625 C 246.164062 195.453125 246.265625 195.28125 246.300781 195.050781 C 246.40625 194.425781 246.320312 193.863281 246.054688 193.359375 C 245.789062 192.859375 245.363281 192.367188 244.773438 191.882812 C 244.769531 191.882812 244.769531 191.882812 244.769531 191.882812 C 244.660156 191.804688 244.59375 191.710938 244.574219 191.59375 C 244.546875 191.476562 244.5625 191.355469 244.613281 191.238281 C 244.640625 191.164062 244.675781 191.101562 244.722656 191.054688 C 244.769531 191.003906 244.8125 190.96875 244.851562 190.953125 C 244.894531 190.9375 244.929688 190.929688 244.957031 190.941406 C 244.960938 190.941406 244.96875 190.945312 244.972656 190.945312 C 245.164062 191.003906 245.363281 191.089844 245.578125 191.203125 C 245.789062 191.3125 246.058594 191.460938 246.386719 191.644531 C 246.714844 191.824219 246.933594 191.945312 247.046875 192 C 247.066406 192.011719 247.09375 192.007812 247.121094 191.996094 C 247.148438 191.984375 247.164062 191.964844 247.175781 191.941406 C 247.1875 191.921875 247.1875 191.902344 247.179688 191.882812 C 247.007812 191.105469 246.929688 190.226562 246.945312 189.25 C 246.957031 189.101562 247 188.996094 247.074219 188.929688 C 247.144531 188.863281 247.234375 188.832031 247.34375 188.832031 C 247.441406 188.832031 247.535156 188.867188 247.613281 188.945312 C 247.695312 189.019531 247.734375 189.128906 247.730469 189.265625 C 247.722656 189.546875 247.726562 189.824219 247.742188 190.089844 C 247.757812 190.355469 247.78125 190.617188 247.8125 190.878906 C 247.84375 191.136719 247.882812 191.390625 247.933594 191.644531 C 247.980469 191.898438 248.039062 192.160156 248.109375 192.429688 C 248.121094 192.460938 248.136719 192.480469 248.167969 192.492188 C 249.199219 192.980469 250.117188 193.585938 250.921875 194.308594 C 251.597656 194.914062 252.054688 195.496094 252.289062 196.0625 C 252.523438 196.628906 252.472656 197.109375 252.125 197.496094 C 251.863281 197.753906 251.589844 197.902344 251.304688 197.941406 C 250.867188 197.996094 250.433594 197.839844 250.003906 197.480469 C 249.570312 197.121094 249.175781 196.660156 248.816406 196.09375 C 248.457031 195.527344 248.15625 194.96875 247.917969 194.421875 C 247.679688 193.871094 247.535156 193.429688 247.484375 193.097656 C 247.484375 193.066406 247.46875 193.039062 247.433594 193.023438 C 247.394531 193.011719 247.300781 192.960938 247.148438 192.875 C 247 192.785156 246.902344 192.734375 246.851562 192.714844 C 246.824219 192.703125 246.796875 192.699219 246.773438 192.710938 C 246.746094 192.722656 246.730469 192.738281 246.71875 192.765625 C 246.710938 192.792969 246.714844 192.820312 246.730469 192.84375 C 246.878906 193.128906 246.988281 193.425781 247.058594 193.734375 C 247.128906 194.046875 247.160156 194.332031 247.152344 194.59375 C 247.148438 194.855469 247.109375 195.09375 247.046875 195.308594 C 246.851562 195.957031 246.511719 196.359375 246.015625 196.523438 C 245.695312 196.625 245.359375 196.613281 245.003906 196.484375 C 244.644531 196.351562 244.304688 196.097656 243.980469 195.722656 C 243.65625 195.34375 243.40625 194.882812 243.230469 194.339844 C 243.210938 194.125 243.28125 193.984375 243.4375 193.921875 C 243.472656 193.910156 243.511719 193.90625 243.554688 193.902344 C 243.601562 193.902344 243.644531 193.910156 243.691406 193.925781 C 243.738281 193.941406 243.78125 193.964844 243.828125 193.996094 C 243.867188 194.023438 243.910156 194.066406 243.945312 194.117188 C 243.984375 194.171875 244.011719 194.230469 244.035156 194.292969 Z M 248.5 193.652344 C 248.507812 193.785156 248.566406 193.976562 248.671875 194.226562 C 248.777344 194.476562 248.917969 194.753906 249.089844 195.058594 C 249.261719 195.363281 249.445312 195.660156 249.640625 195.945312 C 250.410156 197.035156 251 197.4375 251.40625 197.148438 C 251.410156 197.144531 251.410156 197.140625 251.410156 197.140625 C 251.480469 197.085938 251.527344 197.023438 251.5625 196.957031 C 251.660156 196.738281 251.625 196.460938 251.449219 196.117188 C 251.273438 195.773438 251.023438 195.4375 250.699219 195.109375 C 250.371094 194.78125 250.023438 194.472656 249.644531 194.191406 C 249.269531 193.90625 248.933594 193.695312 248.640625 193.558594 C 248.589844 193.535156 248.546875 193.546875 248.519531 193.59375 L 248.507812 193.617188 C 248.503906 193.625 248.5 193.636719 248.5 193.652344 " fill-opacity="1" fill-rule="nonzero"/><path fill="#91692b" d="M 246.734375 185.535156 C 246.941406 185.316406 247.214844 185.222656 247.558594 185.261719 C 247.902344 185.300781 248.277344 185.441406 248.695312 185.6875 C 248.71875 185.699219 248.738281 185.703125 248.761719 185.699219 C 248.785156 185.695312 248.804688 185.683594 248.816406 185.664062 C 248.972656 185.496094 249.121094 185.25 249.257812 184.925781 C 249.398438 184.601562 249.460938 184.324219 249.453125 184.09375 C 249.457031 183.953125 249.496094 183.847656 249.5625 183.777344 C 249.632812 183.707031 249.722656 183.671875 249.832031 183.667969 C 249.929688 183.65625 250.019531 183.6875 250.105469 183.761719 C 250.191406 183.835938 250.234375 183.941406 250.234375 184.078125 C 250.238281 184.226562 250.199219 184.441406 250.117188 184.71875 C 250.039062 184.996094 249.941406 185.25 249.832031 185.488281 C 249.71875 185.726562 249.605469 185.921875 249.496094 186.078125 C 249.484375 186.089844 249.476562 186.105469 249.472656 186.121094 C 249.472656 186.136719 249.472656 186.152344 249.476562 186.167969 C 249.480469 186.1875 249.488281 186.199219 249.5 186.210938 C 249.542969 186.25 249.585938 186.292969 249.625 186.339844 C 249.90625 186.660156 250.097656 187.015625 250.195312 187.40625 C 250.292969 187.796875 250.285156 188.1875 250.171875 188.585938 C 250.058594 188.980469 249.816406 189.34375 249.445312 189.675781 C 249.121094 189.960938 248.722656 190.066406 248.246094 189.992188 C 247.769531 189.917969 247.269531 189.652344 246.738281 189.195312 C 246.539062 189.015625 246.355469 188.800781 246.183594 188.542969 C 246.015625 188.289062 245.878906 188.023438 245.773438 187.742188 C 245.667969 187.460938 245.625 187.171875 245.636719 186.871094 C 245.652344 186.570312 245.742188 186.304688 245.902344 186.078125 C 245.960938 185.988281 246.03125 185.910156 246.113281 185.839844 C 246.195312 185.769531 246.28125 185.710938 246.378906 185.664062 C 246.476562 185.621094 246.578125 185.585938 246.6875 185.566406 C 246.703125 185.5625 246.71875 185.554688 246.734375 185.535156 Z M 247.160156 186.238281 C 247.402344 186.503906 247.683594 186.53125 248 186.316406 C 248.015625 186.308594 248.027344 186.292969 248.035156 186.277344 C 248.046875 186.261719 248.046875 186.246094 248.046875 186.226562 C 248.042969 186.207031 248.035156 186.191406 248.023438 186.179688 C 248.015625 186.167969 248 186.15625 247.984375 186.15625 C 247.828125 186.089844 247.71875 186.046875 247.660156 186.03125 C 247.605469 186.015625 247.542969 186.007812 247.484375 186.015625 C 247.425781 186.019531 247.332031 186.039062 247.210938 186.078125 C 247.1875 186.085938 247.167969 186.101562 247.152344 186.128906 C 247.140625 186.15625 247.136719 186.183594 247.148438 186.207031 C 247.148438 186.21875 247.15625 186.226562 247.160156 186.238281 Z M 248.804688 186.757812 C 248.789062 186.773438 248.777344 186.789062 248.765625 186.800781 C 248.453125 187.09375 248.113281 187.25 247.742188 187.269531 C 247.371094 187.289062 247.015625 187.117188 246.671875 186.75 C 246.664062 186.742188 246.652344 186.738281 246.644531 186.734375 C 246.632812 186.730469 246.625 186.726562 246.613281 186.722656 C 246.601562 186.722656 246.59375 186.722656 246.582031 186.722656 C 246.566406 186.722656 246.558594 186.722656 246.550781 186.730469 C 246.539062 186.738281 246.53125 186.746094 246.523438 186.753906 C 246.511719 186.765625 246.503906 186.777344 246.5 186.792969 C 246.449219 187.007812 246.503906 187.304688 246.667969 187.671875 C 246.832031 188.042969 247.050781 188.375 247.324219 188.660156 C 247.429688 188.769531 247.535156 188.863281 247.640625 188.941406 C 247.75 189.023438 247.863281 189.089844 247.992188 189.140625 C 248.121094 189.191406 248.246094 189.21875 248.367188 189.226562 C 248.492188 189.238281 248.617188 189.214844 248.75 189.164062 C 248.878906 189.113281 249.003906 189.03125 249.125 188.914062 C 249.140625 188.902344 249.15625 188.886719 249.171875 188.871094 C 249.183594 188.855469 249.199219 188.835938 249.210938 188.820312 C 249.4375 188.535156 249.519531 188.175781 249.453125 187.742188 C 249.390625 187.304688 249.214844 186.976562 248.933594 186.753906 C 248.886719 186.71875 248.84375 186.722656 248.804688 186.757812 " fill-opacity="1" fill-rule="nonzero"/><path fill="#91692b" d="M 249.574219 182.695312 C 249.628906 182.769531 249.683594 182.839844 249.742188 182.90625 C 249.796875 182.972656 249.851562 183.035156 249.902344 183.089844 C 249.953125 183.144531 250.007812 183.199219 250.0625 183.253906 C 250.421875 183.605469 250.742188 183.820312 251.015625 183.890625 C 251.292969 183.960938 251.523438 183.90625 251.707031 183.726562 C 251.898438 183.53125 252.007812 183.238281 252.03125 182.851562 C 252.054688 182.457031 251.984375 182.042969 251.820312 181.601562 C 251.65625 181.15625 251.417969 180.78125 251.105469 180.46875 C 250.957031 180.324219 250.886719 180.160156 250.902344 179.972656 C 250.914062 179.785156 250.984375 179.621094 251.109375 179.488281 C 251.199219 179.394531 251.292969 179.335938 251.390625 179.316406 C 251.484375 179.296875 251.570312 179.324219 251.644531 179.394531 C 251.855469 179.59375 252.082031 179.757812 252.316406 179.886719 C 252.398438 179.929688 252.480469 179.96875 252.558594 180.003906 C 252.636719 180.035156 252.722656 180.058594 252.8125 180.074219 C 252.902344 180.089844 252.984375 180.09375 253.0625 180.082031 C 253.140625 180.070312 253.214844 180.039062 253.289062 179.988281 C 253.363281 179.9375 253.425781 179.867188 253.472656 179.777344 C 253.5625 179.617188 253.613281 179.449219 253.628906 179.265625 C 253.644531 179.082031 253.628906 178.910156 253.589844 178.746094 C 253.546875 178.582031 253.488281 178.417969 253.414062 178.257812 C 253.335938 178.09375 253.257812 177.949219 253.167969 177.828125 C 253.082031 177.703125 252.992188 177.59375 252.902344 177.5 C 252.855469 177.449219 252.824219 177.394531 252.808594 177.339844 C 252.789062 177.285156 252.78125 177.234375 252.789062 177.183594 C 252.796875 177.136719 252.808594 177.089844 252.835938 177.050781 C 252.859375 177.011719 252.894531 176.972656 252.933594 176.9375 C 253.023438 176.871094 253.121094 176.839844 253.222656 176.84375 C 253.324219 176.847656 253.421875 176.902344 253.519531 177.003906 C 253.582031 177.089844 253.648438 177.175781 253.714844 177.273438 C 253.78125 177.367188 253.84375 177.472656 253.90625 177.582031 C 253.964844 177.691406 254.023438 177.808594 254.078125 177.929688 C 254.128906 178.046875 254.179688 178.171875 254.222656 178.300781 C 254.265625 178.429688 254.300781 178.558594 254.324219 178.691406 C 254.347656 178.824219 254.367188 178.957031 254.375 179.085938 C 254.382812 179.214844 254.378906 179.347656 254.359375 179.480469 C 254.34375 179.609375 254.3125 179.738281 254.269531 179.859375 C 254.230469 179.976562 254.183594 180.082031 254.125 180.183594 C 254.066406 180.285156 254.003906 180.378906 253.9375 180.464844 C 253.867188 180.554688 253.785156 180.628906 253.6875 180.695312 C 253.589844 180.757812 253.484375 180.808594 253.371094 180.84375 C 253.257812 180.875 253.121094 180.890625 252.964844 180.890625 C 252.8125 180.890625 252.644531 180.867188 252.464844 180.820312 C 252.449219 180.820312 252.433594 180.820312 252.417969 180.824219 C 252.398438 180.832031 252.386719 180.839844 252.375 180.851562 C 252.359375 180.863281 252.355469 180.878906 252.347656 180.902344 C 252.347656 180.917969 252.347656 180.933594 252.351562 180.945312 C 252.351562 180.957031 252.359375 180.96875 252.371094 180.980469 C 252.53125 181.179688 252.652344 181.441406 252.726562 181.761719 C 252.804688 182.082031 252.828125 182.40625 252.800781 182.734375 C 252.773438 183.058594 252.707031 183.375 252.597656 183.6875 C 252.488281 183.992188 252.328125 184.242188 252.117188 184.425781 C 251.960938 184.574219 251.78125 184.671875 251.582031 184.726562 C 251.378906 184.777344 251.152344 184.773438 250.894531 184.71875 C 250.636719 184.660156 250.34375 184.519531 250.011719 184.292969 C 249.679688 184.066406 249.335938 183.753906 248.972656 183.359375 C 248.871094 183.25 248.835938 183.121094 248.859375 182.972656 C 248.886719 182.828125 248.953125 182.714844 249.066406 182.640625 C 249.105469 182.605469 249.144531 182.582031 249.1875 182.566406 C 249.230469 182.546875 249.273438 182.542969 249.316406 182.546875 C 249.363281 182.550781 249.40625 182.566406 249.449219 182.585938 C 249.492188 182.613281 249.53125 182.648438 249.574219 182.695312 " fill-opacity="1" fill-rule="nonzero"/><path fill="#91692b" d="M 258.339844 169.082031 C 257.703125 168.773438 257.046875 168.40625 256.324219 168.40625 C 254.832031 168.40625 254.011719 170.050781 254.710938 171.316406 C 255.757812 173.207031 258.285156 173.113281 260.132812 173.3125 C 260.597656 173.363281 262.363281 173.527344 262.363281 173.527344 C 262.363281 173.527344 262.332031 171.015625 262.316406 170.601562 C 262.253906 168.863281 262.195312 166.695312 260.910156 165.359375 C 259.3125 163.703125 257.792969 166.222656 258.050781 167.78125 L 258.339844 169.082031 " fill-opacity="1" fill-rule="evenodd"/><path fill="#91692b" d="M 165.226562 222.351562 C 165.820312 220.824219 166.839844 218.53125 168.257812 216.609375 C 169.867188 214.425781 171.992188 212.765625 174.457031 212.714844 C 176.117188 212.675781 177.988281 213.335938 179.996094 215.21875 C 180.878906 216.042969 181.449219 217.1875 181.710938 218.585938 C 182.039062 220.34375 181.878906 222.554688 181.367188 224.953125 C 179.53125 233.640625 173.207031 245.0625 173.207031 245.0625 C 172.890625 245.632812 172.230469 245.921875 171.597656 245.765625 C 171.597656 245.765625 162.84375 243.597656 155.953125 239.378906 C 150.992188 236.34375 147.101562 232.199219 147.328125 227.222656 C 147.472656 224.074219 148.464844 222.082031 149.832031 220.859375 C 151.871094 219.027344 154.90625 218.847656 157.933594 219.519531 C 160.761719 220.144531 163.558594 221.464844 165.226562 222.351562 Z M 171.214844 242.664062 C 172.738281 239.785156 177.09375 231.191406 178.539062 224.355469 C 178.894531 222.6875 179.074219 221.128906 178.960938 219.808594 C 178.875 218.769531 178.625 217.894531 178.019531 217.328125 C 176.730469 216.121094 175.585938 215.582031 174.519531 215.605469 C 172.910156 215.636719 171.636719 216.898438 170.582031 218.324219 C 168.511719 221.140625 167.402344 224.867188 167.402344 224.867188 C 167.273438 225.296875 166.953125 225.644531 166.53125 225.804688 C 166.109375 225.964844 165.640625 225.917969 165.257812 225.679688 C 165.257812 225.679688 161.320312 223.230469 157.308594 222.339844 C 155.25 221.886719 153.148438 221.765625 151.761719 223.011719 C 150.84375 223.835938 150.3125 225.234375 150.214844 227.355469 C 150.03125 231.359375 153.472656 234.46875 157.460938 236.910156 C 162.570312 240.039062 168.761719 241.972656 171.214844 242.664062 " fill-opacity="1" fill-rule="evenodd"/><path fill="#91692b" d="M 214.949219 163.152344 C 214.445312 162.105469 213.75 160.46875 213.4375 158.804688 C 213.082031 156.910156 213.253906 155.007812 214.417969 153.699219 C 215.199219 152.824219 216.445312 152.171875 218.394531 152.039062 C 219.25 151.980469 220.117188 152.238281 220.972656 152.777344 C 222.039062 153.457031 223.109375 154.609375 224.109375 156.035156 C 227.722656 161.191406 230.589844 169.996094 230.589844 169.996094 C 230.730469 170.433594 230.5625 170.917969 230.171875 171.171875 C 230.171875 171.171875 224.816406 174.664062 219.296875 176.199219 C 215.324219 177.304688 211.289062 177.320312 208.820312 174.796875 C 207.257812 173.199219 206.707031 171.71875 206.730469 170.417969 C 206.769531 168.476562 208.144531 166.8125 209.953125 165.566406 C 211.648438 164.402344 213.683594 163.589844 214.949219 163.152344 Z M 228.382812 169.871094 C 227.625 167.6875 225.277344 161.269531 222.429688 157.214844 C 221.734375 156.222656 221.015625 155.375 220.273438 154.796875 C 219.695312 154.339844 219.121094 154.046875 218.535156 154.085938 C 217.285156 154.171875 216.449219 154.503906 215.949219 155.066406 C 215.183594 155.917969 215.222656 157.191406 215.453125 158.425781 C 215.910156 160.863281 217.308594 163.238281 217.308594 163.238281 C 217.46875 163.515625 217.492188 163.847656 217.371094 164.144531 C 217.25 164.441406 217 164.664062 216.691406 164.75 C 216.691406 164.75 213.515625 165.605469 211.117188 167.257812 C 209.886719 168.105469 208.808594 169.136719 208.78125 170.457031 C 208.765625 171.335938 209.234375 172.285156 210.285156 173.363281 C 212.273438 175.394531 215.550781 175.113281 218.746094 174.222656 C 222.839844 173.085938 226.835938 170.808594 228.382812 169.871094 " fill-opacity="1" fill-rule="evenodd"/><path fill="#91692b" d="M 139.40625 233.945312 C 139.132812 228.207031 140.273438 222.273438 143.078125 217.234375 C 148.464844 207.550781 158.609375 202.027344 169.5 201.429688 C 173.5625 201.207031 178.078125 201.820312 181.539062 204.113281 C 183.917969 205.6875 185.761719 208.105469 187.3125 210.464844 C 193.363281 219.6875 194.570312 231.421875 189.316406 241.222656 C 188.402344 242.921875 187.488281 244.714844 186.046875 246.039062 C 185.460938 246.578125 185.417969 247.492188 185.957031 248.082031 C 186.5 248.667969 187.414062 248.710938 188 248.171875 C 189.683594 246.628906 190.800781 244.574219 191.863281 242.589844 C 197.621094 231.851562 196.363281 218.980469 189.726562 208.875 C 187.96875 206.195312 185.835938 203.488281 183.136719 201.699219 C 179.164062 199.070312 174 198.285156 169.339844 198.542969 C 157.464844 199.195312 146.425781 205.269531 140.550781 215.828125 C 137.488281 221.335938 136.21875 227.816406 136.515625 234.082031 C 136.554688 234.878906 137.234375 235.496094 138.03125 235.457031 C 138.828125 235.421875 139.441406 234.742188 139.40625 233.945312 " fill-opacity="1" fill-rule="evenodd"/><path fill="#91692b" d="M 180.015625 250.714844 C 173.226562 253.625 162.742188 253.847656 154.613281 250.621094 C 149.394531 248.550781 145.132812 245.046875 143.65625 239.789062 C 143.445312 239.019531 142.644531 238.570312 141.875 238.785156 C 141.109375 239 140.660156 239.800781 140.875 240.566406 C 142.597656 246.703125 147.457031 250.898438 153.546875 253.3125 C 162.378906 256.8125 173.777344 256.535156 181.152344 253.371094 C 181.886719 253.058594 182.226562 252.207031 181.914062 251.472656 C 181.597656 250.738281 180.75 250.398438 180.015625 250.714844 " fill-opacity="1" fill-rule="evenodd"/><path fill="#763b01" d="M 192.664062 153.765625 C 193.019531 150.242188 192.878906 146.660156 192.828125 143.027344 C 192.746094 137.558594 192.847656 131.96875 194.75 126.238281 C 197.917969 116.691406 205.289062 108.035156 214.578125 104.003906 C 217.039062 102.9375 220.253906 102.144531 223.015625 102.453125 C 226.269531 102.8125 228.980469 104.523438 229.769531 108.59375 C 231.011719 115.023438 227.277344 122.203125 223.976562 127.410156 C 217.523438 137.59375 208.507812 146.347656 199.585938 154.695312 C 204.0625 154.167969 208.832031 154.21875 212.820312 153.78125 C 225.050781 152.445312 237.175781 149.828125 249.476562 149.191406 C 250.527344 149.136719 251.421875 149.945312 251.476562 150.996094 C 251.53125 152.046875 250.722656 152.941406 249.671875 152.996094 C 237.445312 153.625 225.390625 156.238281 213.234375 157.566406 C 207.847656 158.15625 200.945312 157.703125 195.496094 159.320312 C 195.132812 160.027344 194.355469 160.441406 193.554688 160.332031 L 193.425781 160.449219 C 193.199219 160.667969 192.929688 160.8125 192.644531 160.894531 C 185.316406 167.421875 180.226562 177.078125 175.054688 185.113281 C 170.648438 191.960938 165.867188 198.664062 161.972656 205.820312 C 161.46875 206.746094 160.3125 207.085938 159.390625 206.585938 C 158.46875 206.082031 158.125 204.925781 158.628906 204 C 162.566406 196.761719 167.394531 189.976562 171.851562 183.054688 C 176.585938 175.695312 181.324219 167.082031 187.601562 160.5 C 177.347656 162.617188 162.234375 163.753906 149.597656 161.734375 C 138.449219 159.953125 129.28125 155.589844 126.339844 147.820312 C 123.390625 140.027344 126.664062 134.417969 132.210938 130.945312 C 137.359375 127.722656 144.589844 126.460938 150.195312 127.128906 C 157.984375 128.054688 165.613281 131.074219 172.246094 135.195312 C 180.355469 140.234375 186.027344 147.300781 192.664062 153.765625 Z M 189.648438 156.136719 C 183.382812 149.945312 177.960938 143.226562 170.238281 138.429688 C 164.070312 134.597656 156.984375 131.769531 149.742188 130.910156 C 144.914062 130.335938 138.671875 131.394531 134.230469 134.175781 C 130.183594 136.710938 127.75 140.785156 129.902344 146.472656 C 131.113281 149.675781 133.679688 152.085938 137.054688 153.917969 C 140.6875 155.890625 145.242188 157.183594 150.195312 157.976562 C 163.617188 160.121094 179.957031 158.578125 189.648438 156.136719 Z M 196.585938 152.292969 C 205.414062 144.058594 214.382812 135.441406 220.761719 125.371094 C 223.59375 120.902344 227.097656 114.839844 226.03125 109.320312 C 225.632812 107.261719 224.242188 106.421875 222.597656 106.238281 C 220.464844 106 217.992188 106.671875 216.09375 107.5 C 207.773438 111.109375 201.199219 118.886719 198.363281 127.4375 C 196.605469 132.738281 196.558594 137.914062 196.632812 142.972656 C 196.679688 146.117188 196.769531 149.222656 196.585938 152.292969 " fill-opacity="1" fill-rule="evenodd"/></svg>