<svg xmlns="http://www.w3.org/2000/svg" xmlns:xlink="http://www.w3.org/1999/xlink" width="500" zoomAndPan="magnify" viewBox="0 0 375 374.999991" height="500" preserveAspectRatio="xMidYMid meet" version="1.0"><defs><clipPath id="1356c4dc89"><path d="M 57.789062 315 L 123 315 L 123 341 L 57.789062 341 Z M 57.789062 315 " clip-rule="nonzero"/></clipPath><clipPath id="0353b77299"><path d="M 57.789062 333 L 123 333 L 123 341 L 57.789062 341 Z M 57.789062 333 " clip-rule="nonzero"/></clipPath><clipPath id="cf2422baf1"><path d="M 57.789062 315 L 123 315 L 123 324 L 57.789062 324 Z M 57.789062 315 " clip-rule="nonzero"/></clipPath><clipPath id="a7995e5238"><path d="M 175.335938 31.925781 L 317.179688 31.925781 L 317.179688 78.71875 L 175.335938 78.71875 Z M 175.335938 31.925781 " clip-rule="nonzero"/></clipPath><clipPath id="bf2f83d621"><path d="M 197 31.925781 L 222 31.925781 L 222 32 L 197 32 Z M 197 31.925781 " clip-rule="nonzero"/></clipPath><clipPath id="e961af4ac8"><path d="M 197 31.925781 L 239 31.925781 L 239 79 L 197 79 Z M 197 31.925781 " clip-rule="nonzero"/></clipPath><clipPath id="45dc3df9cc"><path d="M 282.597656 31.925781 L 317.179688 31.925781 L 317.179688 38.988281 L 282.597656 38.988281 Z M 282.597656 31.925781 " clip-rule="nonzero"/></clipPath><clipPath id="cfcd1e6d03"><path d="M 282.597656 31.925781 L 317.179688 31.925781 L 317.179688 78.71875 L 282.597656 78.71875 Z M 282.597656 31.925781 " clip-rule="nonzero"/></clipPath><clipPath id="b4f7513018"><path d="M 0 372 L 3 372 L 3 374.738281 L 0 374.738281 Z M 0 372 " clip-rule="nonzero"/></clipPath><clipPath id="4c33546b1b"><path d="M 1 371 L 3.75 371 L 3.75 374 L 1 374 Z M 1 371 " clip-rule="nonzero"/></clipPath><clipPath id="dff1e25e6c"><path d="M 1 372 L 3.75 372 L 3.75 374.738281 L 1 374.738281 Z M 1 372 " clip-rule="nonzero"/></clipPath></defs><g clip-path="url(#1356c4dc89)"><path fill="#ffc800" d="M 90.210938 315.585938 C 72.375 315.585938 57.917969 318.984375 57.917969 323.179688 L 57.917969 333.332031 C 57.917969 337.523438 72.375 340.925781 90.210938 340.925781 C 108.046875 340.925781 122.503906 337.523438 122.503906 333.332031 L 122.503906 323.179688 C 122.503906 318.984375 108.046875 315.585938 90.210938 315.585938 " fill-opacity="1" fill-rule="nonzero"/></g><g clip-path="url(#0353b77299)"><path fill="#d9aa00" d="M 90.210938 340.925781 C 72.375 340.925781 57.917969 337.523438 57.917969 333.332031 L 122.503906 333.332031 C 122.503906 337.523438 108.046875 340.925781 90.210938 340.925781 " fill-opacity="1" fill-rule="nonzero"/></g><g clip-path="url(#cf2422baf1)"><path fill="#ffe173" d="M 122.503906 323.179688 L 57.917969 323.179688 C 57.917969 318.984375 72.375 315.585938 90.210938 315.585938 C 108.046875 315.585938 122.503906 318.984375 122.503906 323.179688 " fill-opacity="1" fill-rule="nonzero"/></g><path fill="#ffc800" d="M 146.066406 304.445312 C 134.273438 317.824219 127.265625 330.917969 130.410156 333.691406 L 138.023438 340.402344 C 141.171875 343.179688 153.28125 334.582031 165.074219 321.199219 C 176.867188 307.820312 183.878906 294.726562 180.730469 291.953125 L 173.117188 285.242188 C 169.972656 282.46875 157.859375 291.066406 146.066406 304.445312 " fill-opacity="1" fill-rule="nonzero"/><path fill="#d9aa00" d="M 139.632812 340.925781 C 138.964844 340.925781 138.421875 340.757812 138.023438 340.402344 L 180.730469 291.953125 C 181.242188 292.402344 181.484375 293.125 181.484375 294.074219 C 181.480469 298.980469 174.957031 309.992188 165.074219 321.199219 C 154.773438 332.886719 144.230469 340.925781 139.632812 340.925781 " fill-opacity="1" fill-rule="nonzero"/><path fill="#ffe173" d="M 130.410156 333.691406 C 129.898438 333.242188 129.65625 332.523438 129.65625 331.570312 C 129.664062 326.667969 136.183594 315.65625 146.066406 304.445312 C 156.367188 292.757812 166.910156 284.71875 171.511719 284.71875 C 172.179688 284.71875 172.71875 284.890625 173.117188 285.242188 L 130.410156 333.691406 " fill-opacity="1" fill-rule="nonzero"/><path fill="#eb5f02" d="M 182.300781 63.824219 L 182.359375 328.667969 C 182.359375 333.964844 185.746094 338.5 190.457031 340.191406 C 191.753906 340.679688 193.152344 340.925781 194.621094 340.925781 L 298.449219 340.902344 C 299.917969 340.902344 301.316406 340.65625 302.617188 340.164062 C 307.324219 338.472656 310.707031 333.933594 310.707031 328.636719 L 310.644531 63.796875 L 182.300781 63.824219 " fill-opacity="1" fill-rule="nonzero"/><path fill="#ffffff" d="M 224.171875 340.917969 L 243.46875 340.914062 L 224.171875 340.917969 " fill-opacity="1" fill-rule="nonzero"/><path fill="#f7bf9a" d="M 202.394531 336.097656 L 202.386719 303.332031 L 243.460938 303.320312 L 243.46875 330.929688 C 227.929688 331.152344 213.710938 333.042969 202.394531 336.097656 M 202.347656 117.777344 L 202.335938 78.542969 L 243.410156 78.535156 L 243.417969 117.769531 L 206.023438 117.777344 L 202.347656 117.777344 " fill-opacity="1" fill-rule="nonzero"/><path fill="#f7bf9a" d="M 302.617188 340.164062 C 302.625 340.160156 302.632812 340.15625 302.640625 340.15625 C 302.632812 340.160156 302.625 340.160156 302.617188 340.164062 M 302.652344 340.152344 C 302.65625 340.148438 302.660156 340.148438 302.667969 340.144531 C 302.664062 340.148438 302.65625 340.148438 302.652344 340.152344 M 302.679688 340.140625 C 302.6875 340.140625 302.6875 340.136719 302.691406 340.136719 C 302.6875 340.136719 302.683594 340.140625 302.679688 340.140625 M 302.707031 340.132812 C 302.710938 340.128906 302.714844 340.128906 302.714844 340.128906 C 302.714844 340.128906 302.710938 340.128906 302.707031 340.132812 M 302.734375 340.121094 C 302.734375 340.121094 302.734375 340.121094 302.738281 340.121094 C 302.734375 340.121094 302.734375 340.121094 302.734375 340.121094 " fill-opacity="1" fill-rule="nonzero"/><path fill="#e44701" d="M 298.203125 337.445312 C 296.285156 337.445312 294.378906 337.132812 292.53125 336.597656 C 288.132812 335.324219 283.257812 334.234375 278.003906 333.363281 L 277.996094 303.3125 L 291.324219 303.308594 L 307.21875 303.308594 L 307.222656 328.636719 C 307.226562 333.492188 303.277344 337.441406 298.449219 337.445312 L 298.210938 337.445312 C 298.207031 337.445312 298.207031 337.445312 298.203125 337.445312 M 277.953125 117.761719 L 277.945312 78.527344 L 283.003906 78.523438 L 307.167969 78.519531 L 307.175781 117.753906 L 291.28125 117.757812 L 277.953125 117.761719 " fill-opacity="1" fill-rule="nonzero"/><path fill="#bc4c02" d="M 194.621094 340.925781 C 193.152344 340.925781 191.753906 340.679688 190.457031 340.191406 C 185.746094 338.5 182.359375 333.964844 182.359375 328.667969 L 182.351562 303.335938 L 185.835938 303.335938 L 185.839844 328.664062 C 185.84375 333.519531 189.792969 337.46875 194.621094 337.46875 L 194.859375 337.46875 C 196.785156 337.46875 198.6875 337.152344 200.535156 336.617188 C 201.144531 336.441406 201.765625 336.265625 202.394531 336.097656 L 202.394531 340.921875 L 224.171875 340.917969 L 194.621094 340.925781 M 243.46875 340.914062 L 243.46875 330.929688 C 244.484375 330.914062 245.507812 330.910156 246.535156 330.910156 C 246.550781 330.910156 246.566406 330.910156 246.582031 330.910156 C 257.882812 330.910156 268.554688 331.789062 278.003906 333.363281 L 278.007812 340.90625 L 298.449219 340.902344 L 243.46875 340.914062 M 302.640625 340.15625 C 302.644531 340.152344 302.648438 340.152344 302.652344 340.152344 C 302.648438 340.152344 302.644531 340.152344 302.640625 340.15625 M 302.667969 340.144531 C 302.671875 340.144531 302.675781 340.144531 302.679688 340.140625 C 302.675781 340.140625 302.671875 340.144531 302.667969 340.144531 M 302.691406 340.136719 C 302.699219 340.136719 302.699219 340.132812 302.707031 340.132812 C 302.699219 340.132812 302.699219 340.136719 302.691406 340.136719 M 302.714844 340.128906 C 302.722656 340.125 302.730469 340.125 302.734375 340.121094 C 302.730469 340.125 302.722656 340.125 302.714844 340.128906 M 302.738281 340.121094 C 306.71875 338.636719 309.71875 335.109375 310.496094 330.824219 L 310.488281 303.304688 L 310.699219 303.304688 L 310.675781 202.621094 L 310.707031 328.636719 C 310.707031 333.886719 307.382812 338.394531 302.738281 340.121094 M 182.3125 117.785156 L 182.304688 78.546875 C 182.375 78.546875 182.445312 78.546875 182.515625 78.546875 L 185.785156 78.546875 L 185.792969 117.78125 L 182.3125 117.785156 M 310.445312 117.753906 L 310.4375 78.519531 C 310.507812 78.519531 310.578125 78.515625 310.648438 78.515625 L 310.660156 117.753906 L 310.445312 117.753906 " fill-opacity="1" fill-rule="nonzero"/><path fill="#c6997b" d="M 202.394531 340.921875 L 202.394531 336.097656 C 213.710938 333.042969 227.929688 331.152344 243.46875 330.929688 L 243.46875 340.914062 L 224.171875 340.917969 L 202.394531 340.921875 " fill-opacity="1" fill-rule="nonzero"/><path fill="#b63901" d="M 278.007812 340.90625 L 278.003906 333.363281 C 283.257812 334.234375 288.132812 335.324219 292.53125 336.597656 C 294.378906 337.132812 296.285156 337.445312 298.203125 337.445312 C 298.207031 337.445312 298.207031 337.445312 298.210938 337.445312 L 298.449219 337.445312 C 303.277344 337.441406 307.226562 333.492188 307.222656 328.636719 L 307.21875 303.308594 L 310.488281 303.304688 L 310.496094 330.824219 C 309.71875 335.109375 306.71875 338.636719 302.738281 340.121094 C 302.734375 340.121094 302.734375 340.121094 302.734375 340.121094 C 302.730469 340.125 302.722656 340.125 302.714844 340.128906 C 302.714844 340.128906 302.710938 340.128906 302.707031 340.132812 C 302.699219 340.132812 302.699219 340.136719 302.691406 340.136719 C 302.6875 340.136719 302.6875 340.140625 302.679688 340.140625 C 302.675781 340.144531 302.671875 340.144531 302.667969 340.144531 C 302.660156 340.148438 302.65625 340.148438 302.652344 340.152344 C 302.648438 340.152344 302.644531 340.152344 302.640625 340.15625 C 302.632812 340.15625 302.625 340.160156 302.617188 340.164062 C 301.316406 340.65625 299.917969 340.902344 298.449219 340.902344 L 278.007812 340.90625 M 307.175781 117.753906 L 307.167969 78.519531 L 310.4375 78.519531 L 310.445312 117.753906 L 307.175781 117.753906 " fill-opacity="1" fill-rule="nonzero"/><g clip-path="url(#a7995e5238)"><path fill="#eae7e1" d="M 310.4375 78.519531 L 182.515625 78.546875 C 178.789062 78.546875 175.769531 75.53125 175.769531 71.804688 L 175.761719 38.699219 C 175.761719 34.976562 178.78125 31.957031 182.503906 31.957031 L 310.425781 31.925781 C 314.148438 31.925781 317.167969 34.945312 317.171875 38.667969 L 317.179688 71.773438 C 317.179688 75.5 314.160156 78.515625 310.4375 78.519531 " fill-opacity="1" fill-rule="nonzero"/></g><path fill="#fffcf5" d="M 182.175781 36.859375 L 182.1875 73.644531 C 182.1875 74.996094 183.285156 76.09375 184.636719 76.09375 L 184.628906 34.40625 C 183.273438 34.40625 182.175781 35.503906 182.175781 36.859375 " fill-opacity="1" fill-rule="nonzero"/><path fill="#cfccc6" d="M 184.628906 34.40625 L 184.636719 76.09375 C 185.992188 76.09375 187.089844 74.996094 187.089844 73.644531 L 187.082031 36.859375 C 187.082031 35.503906 185.984375 34.40625 184.628906 34.40625 " fill-opacity="1" fill-rule="nonzero"/><path fill="#fffcf5" d="M 193.417969 36.859375 L 193.429688 73.640625 C 193.429688 74.996094 194.527344 76.09375 195.882812 76.09375 L 195.871094 34.402344 C 194.519531 34.402344 193.417969 35.503906 193.417969 36.859375 " fill-opacity="1" fill-rule="nonzero"/><path fill="#cfccc6" d="M 195.871094 34.402344 L 195.882812 76.09375 C 197.234375 76.09375 198.332031 74.996094 198.332031 73.640625 L 198.324219 36.855469 C 198.324219 35.5 197.226562 34.402344 195.871094 34.402344 " fill-opacity="1" fill-rule="nonzero"/><path fill="#fffcf5" d="M 204.664062 36.855469 L 204.671875 73.636719 C 204.671875 74.992188 205.769531 76.089844 207.125 76.089844 L 207.113281 34.402344 C 205.761719 34.402344 204.660156 35.5 204.664062 36.855469 " fill-opacity="1" fill-rule="nonzero"/><path fill="#cfccc6" d="M 207.113281 34.402344 L 207.125 76.089844 C 208.480469 76.089844 209.574219 74.992188 209.574219 73.636719 L 209.566406 36.855469 C 209.566406 35.5 208.46875 34.402344 207.113281 34.402344 " fill-opacity="1" fill-rule="nonzero"/><path fill="#fffcf5" d="M 215.90625 36.851562 L 215.914062 73.636719 C 215.914062 74.992188 217.011719 76.085938 218.367188 76.085938 L 218.359375 34.398438 C 217.003906 34.402344 215.90625 35.496094 215.90625 36.851562 " fill-opacity="1" fill-rule="nonzero"/><path fill="#cfccc6" d="M 218.359375 34.398438 L 218.367188 76.085938 C 219.722656 76.085938 220.816406 74.988281 220.816406 73.632812 L 220.808594 36.851562 C 220.808594 35.496094 219.710938 34.398438 218.359375 34.398438 " fill-opacity="1" fill-rule="nonzero"/><path fill="#fffcf5" d="M 227.148438 36.847656 L 227.15625 73.632812 C 227.160156 74.988281 228.257812 76.085938 229.609375 76.085938 L 229.601562 34.398438 C 228.246094 34.398438 227.148438 35.492188 227.148438 36.847656 " fill-opacity="1" fill-rule="nonzero"/><path fill="#cfccc6" d="M 229.601562 34.398438 L 229.609375 76.085938 C 230.964844 76.085938 232.0625 74.988281 232.0625 73.632812 L 232.054688 36.847656 C 232.054688 35.492188 230.957031 34.398438 229.601562 34.398438 " fill-opacity="1" fill-rule="nonzero"/><path fill="#fffcf5" d="M 238.390625 36.847656 L 238.402344 73.628906 C 238.402344 74.984375 239.5 76.082031 240.851562 76.082031 L 240.84375 34.394531 C 239.488281 34.394531 238.390625 35.492188 238.390625 36.847656 " fill-opacity="1" fill-rule="nonzero"/><path fill="#cfccc6" d="M 240.84375 34.394531 L 240.851562 76.082031 C 242.207031 76.082031 243.304688 74.984375 243.304688 73.628906 L 243.296875 36.84375 C 243.296875 35.492188 242.199219 34.394531 240.84375 34.394531 " fill-opacity="1" fill-rule="nonzero"/><path fill="#fffcf5" d="M 249.632812 36.84375 L 249.644531 73.628906 C 249.644531 74.984375 250.742188 76.078125 252.097656 76.078125 L 252.085938 34.390625 C 250.734375 34.390625 249.632812 35.488281 249.632812 36.84375 " fill-opacity="1" fill-rule="nonzero"/><path fill="#cfccc6" d="M 252.085938 34.390625 L 252.097656 76.078125 C 253.449219 76.078125 254.546875 74.984375 254.546875 73.628906 L 254.539062 36.84375 C 254.539062 35.488281 253.441406 34.390625 252.085938 34.390625 " fill-opacity="1" fill-rule="nonzero"/><path fill="#fffcf5" d="M 260.878906 36.84375 L 260.886719 73.625 C 260.886719 74.980469 261.984375 76.078125 263.339844 76.078125 L 263.332031 34.386719 C 261.976562 34.386719 260.878906 35.488281 260.878906 36.84375 " fill-opacity="1" fill-rule="nonzero"/><path fill="#cfccc6" d="M 263.332031 34.386719 L 263.339844 76.078125 C 264.695312 76.078125 265.792969 74.980469 265.792969 73.625 L 265.78125 36.839844 C 265.78125 35.484375 264.683594 34.386719 263.332031 34.386719 " fill-opacity="1" fill-rule="nonzero"/><path fill="#fffcf5" d="M 272.121094 36.839844 L 272.128906 73.625 C 272.128906 74.976562 273.226562 76.074219 274.582031 76.074219 L 274.574219 34.386719 C 273.21875 34.386719 272.121094 35.484375 272.121094 36.839844 " fill-opacity="1" fill-rule="nonzero"/><path fill="#cfccc6" d="M 274.574219 34.386719 L 274.582031 76.074219 C 275.9375 76.074219 277.035156 74.976562 277.035156 73.621094 L 277.027344 36.839844 C 277.023438 35.484375 275.929688 34.386719 274.574219 34.386719 " fill-opacity="1" fill-rule="nonzero"/><path fill="#fffcf5" d="M 283.363281 36.835938 L 283.375 73.621094 C 283.375 74.976562 284.472656 76.074219 285.824219 76.074219 L 285.816406 34.382812 C 284.460938 34.386719 283.363281 35.480469 283.363281 36.835938 " fill-opacity="1" fill-rule="nonzero"/><path fill="#cfccc6" d="M 285.816406 34.382812 L 285.824219 76.074219 C 287.179688 76.074219 288.277344 74.972656 288.277344 73.617188 L 288.269531 36.835938 C 288.269531 35.480469 287.171875 34.382812 285.816406 34.382812 " fill-opacity="1" fill-rule="nonzero"/><path fill="#fffcf5" d="M 294.605469 36.832031 L 294.617188 73.617188 C 294.617188 74.972656 295.714844 76.070312 297.070312 76.070312 L 297.058594 34.382812 C 295.707031 34.382812 294.605469 35.476562 294.605469 36.832031 " fill-opacity="1" fill-rule="nonzero"/><path fill="#cfccc6" d="M 297.058594 34.382812 L 297.070312 76.070312 C 298.421875 76.070312 299.523438 74.972656 299.519531 73.617188 L 299.511719 36.832031 C 299.511719 35.476562 298.414062 34.382812 297.058594 34.382812 " fill-opacity="1" fill-rule="nonzero"/><path fill="#fffcf5" d="M 305.851562 36.832031 L 305.859375 73.613281 C 305.859375 74.96875 306.957031 76.066406 308.3125 76.066406 L 308.304688 34.378906 C 306.949219 34.378906 305.851562 35.476562 305.851562 36.832031 " fill-opacity="1" fill-rule="nonzero"/><path fill="#cfccc6" d="M 308.304688 34.378906 L 308.3125 76.066406 C 309.664062 76.066406 310.765625 74.96875 310.765625 73.613281 L 310.753906 36.832031 C 310.753906 35.476562 309.65625 34.378906 308.304688 34.378906 " fill-opacity="1" fill-rule="nonzero"/><g clip-path="url(#bf2f83d621)"><path fill="#ffffff" d="M 197.011719 31.953125 L 221.882812 31.945312 L 197.011719 31.953125 " fill-opacity="1" fill-rule="nonzero"/></g><path fill="#f7bf9a" d="M 197.023438 78.546875 L 238.097656 78.535156 L 197.023438 78.546875 " fill-opacity="1" fill-rule="nonzero"/><g clip-path="url(#e961af4ac8)"><path fill="#f7f5f3" d="M 197.023438 78.546875 L 197.023438 75.808594 C 197.800781 75.398438 198.332031 74.582031 198.332031 73.640625 L 198.324219 36.855469 C 198.324219 35.914062 197.792969 35.09375 197.011719 34.6875 L 197.011719 31.953125 L 221.882812 31.945312 L 238.085938 31.945312 L 238.097656 78.535156 L 197.023438 78.546875 M 207.125 76.089844 C 208.480469 76.089844 209.574219 74.992188 209.574219 73.636719 L 209.566406 36.855469 C 209.566406 35.5 208.46875 34.402344 207.113281 34.402344 C 205.761719 34.402344 204.660156 35.5 204.664062 36.855469 L 204.671875 73.636719 C 204.671875 74.992188 205.769531 76.089844 207.125 76.089844 M 218.367188 76.085938 C 219.722656 76.085938 220.816406 74.988281 220.816406 73.632812 L 220.808594 36.851562 C 220.808594 35.496094 219.710938 34.398438 218.359375 34.398438 C 217.003906 34.402344 215.90625 35.496094 215.90625 36.851562 L 215.914062 73.636719 C 215.914062 74.992188 217.011719 76.085938 218.367188 76.085938 M 229.609375 76.085938 C 230.964844 76.085938 232.0625 74.988281 232.0625 73.632812 L 232.054688 36.847656 C 232.054688 35.492188 230.957031 34.398438 229.601562 34.398438 C 228.246094 34.398438 227.148438 35.492188 227.148438 36.847656 L 227.15625 73.632812 C 227.160156 74.988281 228.257812 76.085938 229.609375 76.085938 " fill-opacity="1" fill-rule="nonzero"/></g><path fill="#ecebe8" d="M 197.023438 75.808594 L 197.011719 34.6875 C 197.792969 35.09375 198.324219 35.914062 198.324219 36.855469 L 198.332031 73.640625 C 198.332031 74.582031 197.800781 75.398438 197.023438 75.808594 " fill-opacity="1" fill-rule="nonzero"/><path fill="#fffefb" d="M 207.125 76.089844 C 205.769531 76.089844 204.671875 74.992188 204.671875 73.636719 L 204.664062 36.855469 C 204.660156 35.5 205.761719 34.402344 207.113281 34.402344 L 207.125 76.089844 " fill-opacity="1" fill-rule="nonzero"/><path fill="#ecebe8" d="M 207.125 76.089844 L 207.113281 34.402344 C 208.46875 34.402344 209.566406 35.5 209.566406 36.855469 L 209.574219 73.636719 C 209.574219 74.992188 208.480469 76.089844 207.125 76.089844 " fill-opacity="1" fill-rule="nonzero"/><path fill="#fffefb" d="M 218.367188 76.085938 C 217.011719 76.085938 215.914062 74.992188 215.914062 73.636719 L 215.90625 36.851562 C 215.90625 35.496094 217.003906 34.402344 218.359375 34.398438 L 218.367188 76.085938 " fill-opacity="1" fill-rule="nonzero"/><path fill="#ecebe8" d="M 218.367188 76.085938 L 218.359375 34.398438 C 219.710938 34.398438 220.808594 35.496094 220.808594 36.851562 L 220.816406 73.632812 C 220.816406 74.988281 219.722656 76.085938 218.367188 76.085938 " fill-opacity="1" fill-rule="nonzero"/><path fill="#fffefb" d="M 229.609375 76.085938 C 228.257812 76.085938 227.160156 74.988281 227.15625 73.632812 L 227.148438 36.847656 C 227.148438 35.492188 228.246094 34.398438 229.601562 34.398438 L 229.609375 76.085938 " fill-opacity="1" fill-rule="nonzero"/><path fill="#ecebe8" d="M 229.609375 76.085938 L 229.601562 34.398438 C 230.957031 34.398438 232.054688 35.492188 232.054688 36.847656 L 232.0625 73.632812 C 232.0625 74.988281 230.964844 76.085938 229.609375 76.085938 " fill-opacity="1" fill-rule="nonzero"/><g clip-path="url(#45dc3df9cc)"><path fill="#cccccc" d="M 317.171875 38.667969 C 317.167969 37.832031 317.019531 37.03125 316.738281 36.292969 C 317.019531 37.03125 317.167969 37.832031 317.171875 38.667969 M 282.992188 31.933594 L 310.417969 31.925781 L 282.992188 31.933594 " fill-opacity="1" fill-rule="nonzero"/></g><path fill="#bc4c02" d="M 283.003906 78.523438 L 307.167969 78.519531 L 283.003906 78.523438 " fill-opacity="1" fill-rule="nonzero"/><g clip-path="url(#cfcd1e6d03)"><path fill="#bbb9b4" d="M 283.003906 78.523438 L 282.992188 31.933594 L 310.417969 31.925781 L 310.425781 31.925781 C 313.316406 31.925781 315.777344 33.742188 316.738281 36.292969 C 317.019531 37.03125 317.167969 37.832031 317.171875 38.667969 L 317.179688 71.773438 C 317.179688 75.5 314.160156 78.515625 310.4375 78.519531 L 307.167969 78.519531 L 283.003906 78.523438 M 285.824219 76.074219 C 287.179688 76.074219 288.277344 74.972656 288.277344 73.617188 L 288.269531 36.835938 C 288.269531 35.480469 287.171875 34.382812 285.816406 34.382812 C 284.460938 34.386719 283.363281 35.480469 283.363281 36.835938 L 283.375 73.621094 C 283.375 74.976562 284.472656 76.074219 285.824219 76.074219 M 297.070312 76.070312 C 298.421875 76.070312 299.523438 74.972656 299.519531 73.617188 L 299.511719 36.832031 C 299.511719 35.476562 298.414062 34.382812 297.058594 34.382812 C 295.707031 34.382812 294.605469 35.476562 294.605469 36.832031 L 294.617188 73.617188 C 294.617188 74.972656 295.714844 76.070312 297.070312 76.070312 M 308.3125 76.066406 C 309.664062 76.066406 310.765625 74.96875 310.765625 73.613281 L 310.753906 36.832031 C 310.753906 35.476562 309.65625 34.378906 308.304688 34.378906 C 306.949219 34.378906 305.851562 35.476562 305.851562 36.832031 L 305.859375 73.613281 C 305.859375 74.96875 306.957031 76.066406 308.3125 76.066406 " fill-opacity="1" fill-rule="nonzero"/></g><path fill="#cccac4" d="M 285.824219 76.074219 C 284.472656 76.074219 283.375 74.976562 283.375 73.621094 L 283.363281 36.835938 C 283.363281 35.480469 284.460938 34.386719 285.816406 34.382812 L 285.824219 76.074219 " fill-opacity="1" fill-rule="nonzero"/><path fill="#a6a39e" d="M 285.824219 76.074219 L 285.816406 34.382812 C 287.171875 34.382812 288.269531 35.480469 288.269531 36.835938 L 288.277344 73.617188 C 288.277344 74.972656 287.179688 76.074219 285.824219 76.074219 " fill-opacity="1" fill-rule="nonzero"/><path fill="#cccac4" d="M 297.070312 76.070312 C 295.714844 76.070312 294.617188 74.972656 294.617188 73.617188 L 294.605469 36.832031 C 294.605469 35.476562 295.707031 34.382812 297.058594 34.382812 L 297.070312 76.070312 " fill-opacity="1" fill-rule="nonzero"/><path fill="#a6a39e" d="M 297.070312 76.070312 L 297.058594 34.382812 C 298.414062 34.382812 299.511719 35.476562 299.511719 36.832031 L 299.519531 73.617188 C 299.523438 74.972656 298.421875 76.070312 297.070312 76.070312 " fill-opacity="1" fill-rule="nonzero"/><path fill="#cccac4" d="M 308.3125 76.066406 C 306.957031 76.066406 305.859375 74.96875 305.859375 73.613281 L 305.851562 36.832031 C 305.851562 35.476562 306.949219 34.378906 308.304688 34.378906 L 308.3125 76.066406 " fill-opacity="1" fill-rule="nonzero"/><path fill="#a6a39e" d="M 308.3125 76.066406 L 308.304688 34.378906 C 309.65625 34.378906 310.753906 35.476562 310.753906 36.832031 L 310.765625 73.613281 C 310.765625 74.96875 309.664062 76.066406 308.3125 76.066406 " fill-opacity="1" fill-rule="nonzero"/><path fill="#f2f2f2" d="M 310.699219 303.304688 L 182.351562 303.335938 L 182.3125 117.785156 L 310.660156 117.753906 L 310.699219 303.304688 " fill-opacity="1" fill-rule="nonzero"/><path fill="#e15175" d="M 196.699219 138.175781 L 194.550781 138.175781 L 194.550781 131.910156 C 194.902344 131.824219 195.636719 131.734375 196.785156 131.734375 C 199.140625 131.734375 200.667969 132.734375 200.671875 134.910156 C 200.671875 136.878906 199.140625 138.175781 196.699219 138.175781 M 209.617188 153.316406 L 215.410156 143.636719 L 211.265625 143.636719 L 209.148438 147.726562 C 208.53125 148.933594 208.117188 149.816406 207.589844 151.050781 C 207 149.933594 206.527344 148.960938 205.882812 147.730469 C 205.882812 147.730469 204.257812 144.667969 203.734375 143.640625 C 202.84375 141.894531 202.082031 140.144531 200.671875 139.617188 C 202.523438 138.851562 204.257812 137.113281 204.257812 134.554688 C 204.257812 132.878906 203.636719 131.496094 202.550781 130.585938 C 201.226562 129.46875 199.285156 129 196.433594 129 C 194.34375 129 192.316406 129.175781 190.960938 129.414062 L 190.96875 148.96875 L 194.554688 148.96875 L 194.554688 140.824219 L 196.375 140.824219 C 198.214844 140.875 198.542969 141.859375 199.585938 143.640625 C 201.046875 146.125 205.234375 153.433594 205.234375 153.433594 L 199.355469 163.464844 L 203.503906 163.460938 L 205.472656 159.519531 C 206.265625 157.992188 206.796875 156.933594 207.265625 155.789062 C 207.914062 156.933594 208.472656 157.992188 209.324219 159.519531 L 211.472656 163.460938 L 215.652344 163.460938 L 209.617188 153.316406 " fill-opacity="1" fill-rule="nonzero"/><path fill="#e15175" d="M 300.105469 134.929688 L 231.164062 134.949219 L 231.160156 128.59375 L 300.101562 128.578125 L 300.105469 134.929688 " fill-opacity="1" fill-rule="nonzero"/><path fill="#e15175" d="M 287.847656 149.386719 L 243.425781 149.398438 L 243.425781 143.046875 L 287.84375 143.035156 L 287.847656 149.386719 " fill-opacity="1" fill-rule="nonzero"/><path fill="#4d4d4d" d="M 310.671875 175.179688 L 182.324219 175.207031 L 182.324219 172.753906 L 310.671875 172.722656 L 310.671875 175.179688 " fill-opacity="1" fill-rule="nonzero"/><path fill="#ebd336" d="M 283.726562 195.003906 L 190.976562 195.027344 L 190.972656 182.765625 L 283.722656 182.742188 L 283.726562 195.003906 " fill-opacity="1" fill-rule="nonzero"/><path fill="#4d4d4d" d="M 280.359375 191.125 L 227.742188 191.136719 L 227.742188 186.84375 L 280.359375 186.832031 L 280.359375 191.125 " fill-opacity="1" fill-rule="nonzero"/><path fill="#4d4d4d" d="M 221.507812 191.136719 L 195.609375 191.144531 L 195.609375 186.851562 L 221.503906 186.84375 L 221.507812 191.136719 " fill-opacity="1" fill-rule="nonzero"/><path fill="#ebd336" d="M 283.644531 295.242188 L 191 295.261719 L 190.996094 283 L 283.644531 282.980469 L 283.644531 295.242188 " fill-opacity="1" fill-rule="nonzero"/><path fill="#4d4d4d" d="M 280.285156 291.359375 L 251.035156 291.363281 L 251.035156 287.074219 L 280.285156 287.066406 L 280.285156 291.359375 " fill-opacity="1" fill-rule="nonzero"/><path fill="#4d4d4d" d="M 212.246094 291.371094 L 195.636719 291.378906 L 195.632812 287.085938 L 212.242188 287.082031 L 212.246094 291.371094 " fill-opacity="1" fill-rule="nonzero"/><path fill="#4d4d4d" d="M 247.421875 291.367188 L 215.273438 291.371094 L 215.273438 287.082031 L 247.417969 287.074219 L 247.421875 291.367188 " fill-opacity="1" fill-rule="nonzero"/><path fill="#4d4d4d" d="M 203.324219 232.113281 L 190.988281 232.117188 L 190.988281 239.320312 L 203.328125 239.316406 L 203.324219 232.113281 M 250.445312 239.308594 L 283.632812 239.296875 L 283.632812 232.097656 L 250.445312 232.101562 L 250.445312 239.308594 M 222.917969 267.410156 L 270.835938 267.398438 L 270.835938 260.195312 L 222.914062 260.207031 L 222.917969 267.410156 M 271.898438 225.253906 L 283.628906 225.25 L 283.628906 218.046875 L 271.898438 218.046875 L 271.898438 225.253906 M 258.355469 204.003906 L 258.359375 211.207031 L 283.628906 211.199219 L 283.625 203.996094 L 258.355469 204.003906 M 190.992188 267.417969 L 215.050781 267.414062 L 215.046875 260.210938 L 190.992188 260.214844 L 190.992188 267.417969 M 264.03125 218.050781 L 232.253906 218.058594 L 232.253906 225.261719 L 264.03125 225.253906 L 264.03125 218.050781 M 211.195312 239.316406 L 242.578125 239.308594 L 242.578125 232.105469 L 211.191406 232.113281 L 211.195312 239.316406 M 250.488281 204.003906 L 220.757812 204.011719 L 220.757812 211.214844 L 250.492188 211.207031 L 250.488281 204.003906 M 224.386719 218.058594 L 190.984375 218.066406 L 190.984375 225.269531 L 224.390625 225.261719 L 224.386719 218.058594 M 212.886719 204.011719 L 190.980469 204.019531 L 190.980469 211.222656 L 212.890625 211.214844 L 212.886719 204.011719 " fill-opacity="1" fill-rule="nonzero"/><path fill="#4d4d4d" d="M 306.808594 295.234375 L 287.804688 295.238281 L 287.804688 293.730469 L 306.808594 293.726562 L 306.808594 295.234375 " fill-opacity="1" fill-rule="nonzero"/><path fill="#4d4d4d" d="M 306.804688 292.003906 L 287.800781 292.003906 L 287.800781 290.5 L 306.804688 290.496094 L 306.804688 292.003906 " fill-opacity="1" fill-rule="nonzero"/><path fill="#4d4d4d" d="M 306.804688 289.523438 L 287.800781 289.527344 L 287.800781 286.511719 L 306.804688 286.507812 L 306.804688 289.523438 " fill-opacity="1" fill-rule="nonzero"/><path fill="#4d4d4d" d="M 306.804688 285.535156 L 287.800781 285.539062 L 287.800781 284.03125 L 306.804688 284.027344 L 306.804688 285.535156 " fill-opacity="1" fill-rule="nonzero"/><path fill="#4d4d4d" d="M 306.785156 190.714844 L 287.777344 190.71875 L 287.777344 189.210938 L 306.785156 189.207031 L 306.785156 190.714844 " fill-opacity="1" fill-rule="nonzero"/><path fill="#4d4d4d" d="M 306.785156 188.234375 L 287.777344 188.238281 L 287.777344 185.222656 L 306.78125 185.21875 L 306.785156 188.234375 " fill-opacity="1" fill-rule="nonzero"/><path fill="#4d4d4d" d="M 306.78125 184.246094 L 287.777344 184.25 L 287.777344 182.742188 L 306.78125 182.738281 L 306.78125 184.246094 " fill-opacity="1" fill-rule="nonzero"/><path fill="#4d4d4d" d="M 306.804688 279.066406 L 287.800781 279.070312 L 287.800781 277.566406 L 306.804688 277.5625 L 306.804688 279.066406 " fill-opacity="1" fill-rule="nonzero"/><path fill="#4d4d4d" d="M 306.804688 276.210938 L 287.796875 276.214844 L 287.796875 273.957031 L 306.804688 273.949219 L 306.804688 276.210938 " fill-opacity="1" fill-rule="nonzero"/><path fill="#4d4d4d" d="M 306.804688 272.601562 L 287.796875 272.605469 L 287.796875 271.097656 L 306.800781 271.09375 L 306.804688 272.601562 " fill-opacity="1" fill-rule="nonzero"/><path fill="#4d4d4d" d="M 306.800781 270.121094 L 287.796875 270.125 L 287.796875 267.109375 L 306.800781 267.105469 L 306.800781 270.121094 " fill-opacity="1" fill-rule="nonzero"/><path fill="#4d4d4d" d="M 306.800781 266.132812 L 287.796875 266.136719 L 287.796875 264.628906 L 306.800781 264.628906 L 306.800781 266.132812 " fill-opacity="1" fill-rule="nonzero"/><path fill="#4d4d4d" d="M 306.792969 223.179688 L 287.789062 223.183594 L 287.785156 221.675781 L 306.792969 221.671875 L 306.792969 223.179688 " fill-opacity="1" fill-rule="nonzero"/><path fill="#4d4d4d" d="M 306.792969 220.320312 L 287.785156 220.328125 L 287.785156 218.066406 L 306.792969 218.0625 L 306.792969 220.320312 " fill-opacity="1" fill-rule="nonzero"/><path fill="#4d4d4d" d="M 306.789062 216.710938 L 287.785156 216.714844 L 287.785156 215.210938 L 306.789062 215.203125 L 306.789062 216.710938 " fill-opacity="1" fill-rule="nonzero"/><path fill="#4d4d4d" d="M 306.789062 214.230469 L 287.785156 214.238281 L 287.785156 211.222656 L 306.789062 211.21875 L 306.789062 214.230469 " fill-opacity="1" fill-rule="nonzero"/><path fill="#4d4d4d" d="M 306.789062 210.246094 L 287.785156 210.25 L 287.78125 208.742188 L 306.789062 208.738281 L 306.789062 210.246094 " fill-opacity="1" fill-rule="nonzero"/><path fill="#4d4d4d" d="M 306.800781 258.910156 L 287.792969 258.917969 L 287.792969 255.902344 L 306.800781 255.898438 L 306.800781 258.910156 " fill-opacity="1" fill-rule="nonzero"/><path fill="#4d4d4d" d="M 306.796875 254.921875 L 287.792969 254.925781 L 287.792969 251.914062 L 306.796875 251.910156 L 306.796875 254.921875 " fill-opacity="1" fill-rule="nonzero"/><path fill="#4d4d4d" d="M 306.796875 250.183594 L 287.792969 250.1875 L 287.792969 248.679688 L 306.796875 248.675781 L 306.796875 250.183594 " fill-opacity="1" fill-rule="nonzero"/><path fill="#4d4d4d" d="M 306.796875 246.195312 L 287.792969 246.199219 L 287.792969 244.691406 L 306.796875 244.6875 L 306.796875 246.195312 " fill-opacity="1" fill-rule="nonzero"/><path fill="#4d4d4d" d="M 306.789062 204.371094 L 287.78125 204.375 L 287.78125 201.363281 L 306.785156 201.355469 L 306.789062 204.371094 " fill-opacity="1" fill-rule="nonzero"/><path fill="#4d4d4d" d="M 306.785156 199.628906 L 287.78125 199.632812 L 287.78125 198.125 L 306.785156 198.121094 L 306.785156 199.628906 " fill-opacity="1" fill-rule="nonzero"/><path fill="#4d4d4d" d="M 306.785156 195.640625 L 287.78125 195.648438 L 287.777344 194.140625 L 306.785156 194.136719 L 306.785156 195.640625 " fill-opacity="1" fill-rule="nonzero"/><path fill="#4d4d4d" d="M 306.792969 238.59375 L 287.792969 238.601562 L 287.789062 236.339844 L 306.792969 236.335938 L 306.792969 238.59375 " fill-opacity="1" fill-rule="nonzero"/><path fill="#4d4d4d" d="M 306.792969 234.230469 L 287.789062 234.234375 L 287.789062 232.730469 L 306.792969 232.722656 L 306.792969 234.230469 " fill-opacity="1" fill-rule="nonzero"/><path fill="#4d4d4d" d="M 306.792969 230.996094 L 287.789062 231 L 287.789062 227.988281 L 306.792969 227.980469 L 306.792969 230.996094 " fill-opacity="1" fill-rule="nonzero"/><path fill="#4d4d4d" d="M 306.792969 226.253906 L 287.789062 226.257812 L 287.789062 224.753906 L 306.792969 224.75 L 306.792969 226.253906 " fill-opacity="1" fill-rule="nonzero"/><path fill="#cd4001" d="M 277.996094 303.3125 L 291.324219 303.308594 L 277.996094 303.3125 M 291.28125 117.757812 L 307.175781 117.753906 L 291.28125 117.757812 " fill-opacity="1" fill-rule="nonzero"/><path fill="#d9d9d9" d="M 274.121094 303.3125 L 274.121094 295.242188 L 283.644531 295.242188 L 283.644531 282.980469 L 274.117188 282.980469 L 274.109375 239.300781 L 283.632812 239.296875 L 283.632812 232.097656 L 274.105469 232.097656 L 274.105469 225.253906 L 283.628906 225.25 L 283.628906 218.046875 L 274.105469 218.046875 L 274.101562 211.203125 L 283.628906 211.199219 L 283.625 203.996094 L 274.101562 204 L 274.097656 195.007812 L 283.726562 195.003906 L 283.722656 182.742188 L 274.09375 182.746094 L 274.09375 175.183594 L 307.1875 175.179688 L 307.21875 303.308594 L 309.0625 303.304688 L 291.324219 303.308594 L 277.996094 303.3125 L 274.121094 303.3125 M 306.808594 293.726562 L 287.804688 293.730469 L 287.804688 295.238281 L 306.808594 295.234375 L 306.808594 293.726562 M 306.804688 290.496094 L 287.800781 290.5 L 287.800781 292.003906 L 306.804688 292.003906 L 306.804688 290.496094 M 306.804688 286.507812 L 287.800781 286.511719 L 287.800781 289.527344 L 306.804688 289.523438 L 306.804688 286.507812 M 306.804688 284.027344 L 287.800781 284.03125 L 287.800781 285.539062 L 306.804688 285.535156 L 306.804688 284.027344 M 306.804688 277.5625 L 287.800781 277.566406 L 287.800781 279.070312 L 306.804688 279.066406 L 306.804688 277.5625 M 306.804688 273.949219 L 287.796875 273.957031 L 287.796875 276.214844 L 306.804688 276.210938 L 306.804688 273.949219 M 306.800781 271.09375 L 287.796875 271.097656 L 287.796875 272.605469 L 306.804688 272.601562 L 306.800781 271.09375 M 306.800781 267.105469 L 287.796875 267.109375 L 287.796875 270.125 L 306.800781 270.121094 L 306.800781 267.105469 M 306.800781 264.628906 L 287.796875 264.628906 L 287.796875 266.136719 L 306.800781 266.132812 L 306.800781 264.628906 M 306.800781 255.898438 L 287.792969 255.902344 L 287.792969 258.917969 L 306.800781 258.910156 L 306.800781 255.898438 M 306.796875 251.910156 L 287.792969 251.914062 L 287.792969 254.925781 L 306.796875 254.921875 L 306.796875 251.910156 M 306.796875 248.675781 L 287.792969 248.679688 L 287.792969 250.1875 L 306.796875 250.183594 L 306.796875 248.675781 M 306.796875 244.6875 L 287.792969 244.691406 L 287.792969 246.199219 L 306.796875 246.195312 L 306.796875 244.6875 M 306.792969 236.335938 L 287.789062 236.339844 L 287.792969 238.601562 L 306.792969 238.59375 L 306.792969 236.335938 M 306.792969 232.722656 L 287.789062 232.730469 L 287.789062 234.234375 L 306.792969 234.230469 L 306.792969 232.722656 M 306.792969 227.980469 L 287.789062 227.988281 L 287.789062 231 L 306.792969 230.996094 L 306.792969 227.980469 M 306.792969 224.75 L 287.789062 224.753906 L 287.789062 226.257812 L 306.792969 226.253906 L 306.792969 224.75 M 306.792969 221.671875 L 287.785156 221.675781 L 287.789062 223.183594 L 306.792969 223.179688 L 306.792969 221.671875 M 306.792969 218.0625 L 287.785156 218.066406 L 287.785156 220.328125 L 306.792969 220.320312 L 306.792969 218.0625 M 306.789062 215.203125 L 287.785156 215.210938 L 287.785156 216.714844 L 306.789062 216.710938 L 306.789062 215.203125 M 306.789062 211.21875 L 287.785156 211.222656 L 287.785156 214.238281 L 306.789062 214.230469 L 306.789062 211.21875 M 306.789062 208.738281 L 287.78125 208.742188 L 287.785156 210.25 L 306.789062 210.246094 L 306.789062 208.738281 M 306.785156 201.355469 L 287.78125 201.363281 L 287.78125 204.375 L 306.789062 204.371094 L 306.785156 201.355469 M 306.785156 198.121094 L 287.78125 198.125 L 287.78125 199.632812 L 306.785156 199.628906 L 306.785156 198.121094 M 306.785156 194.136719 L 287.777344 194.140625 L 287.78125 195.648438 L 306.785156 195.640625 L 306.785156 194.136719 M 306.785156 189.207031 L 287.777344 189.210938 L 287.777344 190.71875 L 306.785156 190.714844 L 306.785156 189.207031 M 306.78125 185.21875 L 287.777344 185.222656 L 287.777344 188.238281 L 306.785156 188.234375 L 306.78125 185.21875 M 306.78125 182.738281 L 287.777344 182.742188 L 287.777344 184.25 L 306.78125 184.246094 L 306.78125 182.738281 M 274.09375 172.734375 L 274.089844 149.390625 L 287.847656 149.386719 L 287.84375 143.035156 L 274.085938 143.039062 L 274.085938 134.9375 L 300.105469 134.929688 L 300.101562 128.578125 L 274.082031 128.585938 L 274.082031 117.761719 L 291.28125 117.757812 L 307.175781 117.753906 L 307.1875 172.726562 L 274.09375 172.734375 " fill-opacity="1" fill-rule="nonzero"/><path fill="#ca4969" d="M 274.085938 134.9375 L 274.082031 128.585938 L 300.101562 128.578125 L 300.105469 134.929688 L 274.085938 134.9375 " fill-opacity="1" fill-rule="nonzero"/><path fill="#ca4969" d="M 274.089844 149.390625 L 274.085938 143.039062 L 287.84375 143.035156 L 287.847656 149.386719 L 274.089844 149.390625 " fill-opacity="1" fill-rule="nonzero"/><path fill="#454545" d="M 274.09375 175.183594 L 274.09375 172.734375 L 307.1875 172.726562 L 307.1875 175.179688 L 274.09375 175.183594 " fill-opacity="1" fill-rule="nonzero"/><path fill="#d3bd30" d="M 274.097656 195.007812 L 274.097656 191.125 L 280.359375 191.125 L 280.359375 186.832031 L 274.097656 186.835938 L 274.09375 182.746094 L 283.722656 182.742188 L 283.726562 195.003906 L 274.097656 195.007812 " fill-opacity="1" fill-rule="nonzero"/><path fill="#454545" d="M 274.097656 191.125 L 274.097656 186.835938 L 280.359375 186.832031 L 280.359375 191.125 L 274.097656 191.125 " fill-opacity="1" fill-rule="nonzero"/><path fill="#d3bd30" d="M 274.121094 295.242188 L 274.121094 291.359375 L 280.285156 291.359375 L 280.285156 287.066406 L 274.121094 287.066406 L 274.117188 282.980469 L 283.644531 282.980469 L 283.644531 295.242188 L 274.121094 295.242188 " fill-opacity="1" fill-rule="nonzero"/><path fill="#454545" d="M 274.121094 291.359375 L 274.121094 287.066406 L 280.285156 287.066406 L 280.285156 291.359375 L 274.121094 291.359375 " fill-opacity="1" fill-rule="nonzero"/><path fill="#454545" d="M 274.109375 239.300781 L 274.105469 232.097656 L 283.632812 232.097656 L 283.632812 239.296875 L 274.109375 239.300781 M 274.105469 225.253906 L 274.105469 218.046875 L 283.628906 218.046875 L 283.628906 225.25 L 274.105469 225.253906 M 274.101562 211.203125 L 274.101562 204 L 283.625 203.996094 L 283.628906 211.199219 L 274.101562 211.203125 " fill-opacity="1" fill-rule="nonzero"/><path fill="#454545" d="M 287.804688 295.238281 L 287.804688 293.730469 L 306.808594 293.726562 L 306.808594 295.234375 L 287.804688 295.238281 " fill-opacity="1" fill-rule="nonzero"/><path fill="#454545" d="M 287.800781 292.003906 L 287.800781 290.5 L 306.804688 290.496094 L 306.804688 292.003906 L 287.800781 292.003906 " fill-opacity="1" fill-rule="nonzero"/><path fill="#454545" d="M 287.800781 289.527344 L 287.800781 286.511719 L 306.804688 286.507812 L 306.804688 289.523438 L 287.800781 289.527344 " fill-opacity="1" fill-rule="nonzero"/><path fill="#454545" d="M 287.800781 285.539062 L 287.800781 284.03125 L 306.804688 284.027344 L 306.804688 285.535156 L 287.800781 285.539062 " fill-opacity="1" fill-rule="nonzero"/><path fill="#454545" d="M 287.777344 190.71875 L 287.777344 189.210938 L 306.785156 189.207031 L 306.785156 190.714844 L 287.777344 190.71875 " fill-opacity="1" fill-rule="nonzero"/><path fill="#454545" d="M 287.777344 188.238281 L 287.777344 185.222656 L 306.78125 185.21875 L 306.785156 188.234375 L 287.777344 188.238281 " fill-opacity="1" fill-rule="nonzero"/><path fill="#454545" d="M 287.777344 184.25 L 287.777344 182.742188 L 306.78125 182.738281 L 306.78125 184.246094 L 287.777344 184.25 " fill-opacity="1" fill-rule="nonzero"/><path fill="#454545" d="M 287.800781 279.070312 L 287.800781 277.566406 L 306.804688 277.5625 L 306.804688 279.066406 L 287.800781 279.070312 " fill-opacity="1" fill-rule="nonzero"/><path fill="#454545" d="M 287.796875 276.214844 L 287.796875 273.957031 L 306.804688 273.949219 L 306.804688 276.210938 L 287.796875 276.214844 " fill-opacity="1" fill-rule="nonzero"/><path fill="#454545" d="M 287.796875 272.605469 L 287.796875 271.097656 L 306.800781 271.09375 L 306.804688 272.601562 L 287.796875 272.605469 " fill-opacity="1" fill-rule="nonzero"/><path fill="#454545" d="M 287.796875 270.125 L 287.796875 267.109375 L 306.800781 267.105469 L 306.800781 270.121094 L 287.796875 270.125 " fill-opacity="1" fill-rule="nonzero"/><path fill="#454545" d="M 287.796875 266.136719 L 287.796875 264.628906 L 306.800781 264.628906 L 306.800781 266.132812 L 287.796875 266.136719 " fill-opacity="1" fill-rule="nonzero"/><path fill="#454545" d="M 287.789062 223.183594 L 287.785156 221.675781 L 306.792969 221.671875 L 306.792969 223.179688 L 287.789062 223.183594 " fill-opacity="1" fill-rule="nonzero"/><path fill="#454545" d="M 287.785156 220.328125 L 287.785156 218.066406 L 306.792969 218.0625 L 306.792969 220.320312 L 287.785156 220.328125 " fill-opacity="1" fill-rule="nonzero"/><path fill="#454545" d="M 287.785156 216.714844 L 287.785156 215.210938 L 306.789062 215.203125 L 306.789062 216.710938 L 287.785156 216.714844 " fill-opacity="1" fill-rule="nonzero"/><path fill="#454545" d="M 287.785156 214.238281 L 287.785156 211.222656 L 306.789062 211.21875 L 306.789062 214.230469 L 287.785156 214.238281 " fill-opacity="1" fill-rule="nonzero"/><path fill="#454545" d="M 287.785156 210.25 L 287.78125 208.742188 L 306.789062 208.738281 L 306.789062 210.246094 L 287.785156 210.25 " fill-opacity="1" fill-rule="nonzero"/><path fill="#454545" d="M 287.792969 258.917969 L 287.792969 255.902344 L 306.800781 255.898438 L 306.800781 258.910156 L 287.792969 258.917969 " fill-opacity="1" fill-rule="nonzero"/><path fill="#454545" d="M 287.792969 254.925781 L 287.792969 251.914062 L 306.796875 251.910156 L 306.796875 254.921875 L 287.792969 254.925781 " fill-opacity="1" fill-rule="nonzero"/><path fill="#454545" d="M 287.792969 250.1875 L 287.792969 248.679688 L 306.796875 248.675781 L 306.796875 250.183594 L 287.792969 250.1875 " fill-opacity="1" fill-rule="nonzero"/><path fill="#454545" d="M 287.792969 246.199219 L 287.792969 244.691406 L 306.796875 244.6875 L 306.796875 246.195312 L 287.792969 246.199219 " fill-opacity="1" fill-rule="nonzero"/><path fill="#454545" d="M 287.78125 204.375 L 287.78125 201.363281 L 306.785156 201.355469 L 306.789062 204.371094 L 287.78125 204.375 " fill-opacity="1" fill-rule="nonzero"/><path fill="#454545" d="M 287.78125 199.632812 L 287.78125 198.125 L 306.785156 198.121094 L 306.785156 199.628906 L 287.78125 199.632812 " fill-opacity="1" fill-rule="nonzero"/><path fill="#454545" d="M 287.78125 195.648438 L 287.777344 194.140625 L 306.785156 194.136719 L 306.785156 195.640625 L 287.78125 195.648438 " fill-opacity="1" fill-rule="nonzero"/><path fill="#454545" d="M 287.792969 238.601562 L 287.789062 236.339844 L 306.792969 236.335938 L 306.792969 238.59375 L 287.792969 238.601562 " fill-opacity="1" fill-rule="nonzero"/><path fill="#454545" d="M 287.789062 234.234375 L 287.789062 232.730469 L 306.792969 232.722656 L 306.792969 234.230469 L 287.789062 234.234375 " fill-opacity="1" fill-rule="nonzero"/><path fill="#454545" d="M 287.789062 231 L 287.789062 227.988281 L 306.792969 227.980469 L 306.792969 230.996094 L 287.789062 231 " fill-opacity="1" fill-rule="nonzero"/><path fill="#454545" d="M 287.789062 226.257812 L 287.789062 224.753906 L 306.792969 224.75 L 306.792969 226.253906 L 287.789062 226.257812 " fill-opacity="1" fill-rule="nonzero"/><path fill="#fbdfcd" d="M 206.023438 117.777344 L 243.417969 117.769531 L 206.023438 117.777344 " fill-opacity="1" fill-rule="nonzero"/><path fill="#f9f9f9" d="M 206.066406 303.328125 L 206.0625 295.257812 L 246.527344 295.25 L 246.527344 303.320312 L 206.066406 303.328125 M 206.0625 282.996094 L 206.058594 267.414062 L 215.050781 267.414062 L 215.046875 260.210938 L 206.058594 260.210938 L 206.046875 225.269531 L 224.390625 225.261719 L 224.386719 218.058594 L 206.046875 218.0625 L 206.042969 211.21875 L 212.890625 211.214844 L 212.886719 204.011719 L 206.042969 204.015625 L 206.042969 195.023438 L 246.5 195.015625 L 246.503906 204.003906 L 220.757812 204.011719 L 220.757812 211.214844 L 246.503906 211.210938 L 246.507812 218.054688 L 232.253906 218.058594 L 232.253906 225.261719 L 246.507812 225.257812 L 246.515625 260.203125 L 222.914062 260.207031 L 222.917969 267.410156 L 246.519531 267.40625 L 246.523438 282.988281 L 206.0625 282.996094 M 242.578125 232.105469 L 211.191406 232.113281 L 211.195312 239.316406 L 242.578125 239.308594 L 242.578125 232.105469 M 206.039062 182.761719 L 206.039062 175.199219 L 246.496094 175.191406 L 246.5 182.753906 L 206.039062 182.761719 M 206.035156 172.75 L 206.03125 158.433594 C 206.53125 157.445312 206.917969 156.640625 207.265625 155.789062 C 207.914062 156.933594 208.472656 157.992188 209.324219 159.519531 L 211.472656 163.460938 L 215.652344 163.460938 L 209.617188 153.316406 L 215.410156 143.636719 L 211.265625 143.636719 L 209.148438 147.726562 C 208.53125 148.933594 208.117188 149.816406 207.589844 151.050781 C 207.046875 150.023438 206.601562 149.113281 206.03125 148.011719 L 206.023438 117.777344 L 243.417969 117.769531 L 246.484375 117.769531 L 246.488281 128.589844 L 231.160156 128.59375 L 231.164062 134.949219 L 246.488281 134.941406 L 246.488281 143.042969 L 243.425781 143.046875 L 243.425781 149.398438 L 246.492188 149.394531 L 246.496094 172.738281 L 206.035156 172.75 " fill-opacity="1" fill-rule="nonzero"/><path fill="#f0a8ba" d="M 211.472656 163.460938 L 209.324219 159.519531 C 208.472656 157.992188 207.914062 156.933594 207.265625 155.789062 C 206.917969 156.640625 206.53125 157.445312 206.03125 158.433594 L 206.03125 148.011719 C 206.601562 149.113281 207.046875 150.023438 207.589844 151.050781 C 208.117188 149.816406 208.53125 148.933594 209.148438 147.726562 L 211.265625 143.636719 L 215.410156 143.636719 L 209.617188 153.316406 L 215.652344 163.460938 L 211.472656 163.460938 " fill-opacity="1" fill-rule="nonzero"/><path fill="#f0a8ba" d="M 231.164062 134.949219 L 231.160156 128.59375 L 246.488281 128.589844 L 246.488281 134.941406 L 231.164062 134.949219 " fill-opacity="1" fill-rule="nonzero"/><path fill="#f0a8ba" d="M 243.425781 149.398438 L 243.425781 143.046875 L 246.488281 143.042969 L 246.492188 149.394531 L 243.425781 149.398438 " fill-opacity="1" fill-rule="nonzero"/><path fill="#a6a6a6" d="M 206.039062 175.199219 L 206.035156 172.75 L 246.496094 172.738281 L 246.496094 175.191406 L 206.039062 175.199219 " fill-opacity="1" fill-rule="nonzero"/><path fill="#f5e99b" d="M 206.042969 195.023438 L 206.042969 191.140625 L 221.507812 191.136719 L 221.503906 186.84375 L 206.039062 186.851562 L 206.039062 182.761719 L 246.5 182.753906 L 246.5 186.839844 L 227.742188 186.84375 L 227.742188 191.136719 L 246.5 191.132812 L 246.5 195.015625 L 206.042969 195.023438 " fill-opacity="1" fill-rule="nonzero"/><path fill="#a6a6a6" d="M 227.742188 191.136719 L 227.742188 186.84375 L 246.5 186.839844 L 246.5 191.132812 L 227.742188 191.136719 " fill-opacity="1" fill-rule="nonzero"/><path fill="#a6a6a6" d="M 206.042969 191.140625 L 206.039062 186.851562 L 221.503906 186.84375 L 221.507812 191.136719 L 206.042969 191.140625 " fill-opacity="1" fill-rule="nonzero"/><path fill="#f5e99b" d="M 206.0625 295.257812 L 206.0625 291.375 L 212.246094 291.371094 L 212.242188 287.082031 L 206.0625 287.082031 L 206.0625 282.996094 L 246.523438 282.988281 L 246.523438 287.074219 L 215.273438 287.082031 L 215.273438 291.371094 L 246.523438 291.367188 L 246.527344 295.25 L 206.0625 295.257812 " fill-opacity="1" fill-rule="nonzero"/><path fill="#a6a6a6" d="M 206.0625 291.375 L 206.0625 287.082031 L 212.242188 287.082031 L 212.246094 291.371094 L 206.0625 291.375 " fill-opacity="1" fill-rule="nonzero"/><path fill="#a6a6a6" d="M 215.273438 291.371094 L 215.273438 287.082031 L 246.523438 287.074219 L 246.523438 291.367188 L 215.273438 291.371094 " fill-opacity="1" fill-rule="nonzero"/><path fill="#a6a6a6" d="M 206.058594 267.414062 L 206.058594 260.210938 L 215.046875 260.210938 L 215.050781 267.414062 L 206.058594 267.414062 M 222.917969 267.410156 L 222.914062 260.207031 L 246.515625 260.203125 L 246.519531 267.40625 L 222.917969 267.410156 M 211.195312 239.316406 L 211.191406 232.113281 L 242.578125 232.105469 L 242.578125 239.308594 L 211.195312 239.316406 M 206.046875 225.269531 L 206.046875 218.0625 L 224.386719 218.058594 L 224.390625 225.261719 L 206.046875 225.269531 M 232.253906 225.261719 L 232.253906 218.058594 L 246.507812 218.054688 L 246.507812 225.257812 L 232.253906 225.261719 M 206.042969 211.21875 L 206.042969 204.015625 L 212.886719 204.011719 L 212.890625 211.214844 L 206.042969 211.21875 M 220.757812 211.214844 L 220.757812 204.011719 L 246.503906 204.003906 L 246.503906 211.210938 L 220.757812 211.214844 " fill-opacity="1" fill-rule="nonzero"/><path fill="#963d02" d="M 182.3125 117.785156 L 185.792969 117.78125 L 182.3125 117.785156 " fill-opacity="1" fill-rule="nonzero"/><path fill="#c2c2c2" d="M 182.351562 303.335938 L 182.3125 117.785156 L 185.792969 117.78125 L 185.808594 172.753906 L 182.324219 172.753906 L 182.324219 175.207031 L 185.808594 175.207031 L 185.835938 303.335938 L 182.351562 303.335938 " fill-opacity="1" fill-rule="nonzero"/><path fill="#3e3e3e" d="M 182.324219 175.207031 L 182.324219 172.753906 L 185.808594 172.753906 L 185.808594 175.207031 L 182.324219 175.207031 " fill-opacity="1" fill-rule="nonzero"/><path fill="#c2c2c2" d="M 309.0625 303.304688 L 310.488281 303.304688 L 310.457031 175.179688 L 310.671875 175.179688 L 310.671875 172.722656 L 310.457031 172.722656 L 310.445312 117.753906 L 310.660156 117.753906 L 310.699219 303.304688 L 309.0625 303.304688 " fill-opacity="1" fill-rule="nonzero"/><path fill="#3e3e3e" d="M 310.457031 175.179688 L 310.457031 172.722656 L 310.671875 172.722656 L 310.671875 175.179688 L 310.457031 175.179688 " fill-opacity="1" fill-rule="nonzero"/><path fill="#aeaeae" d="M 307.21875 303.308594 L 307.1875 175.179688 L 310.457031 175.179688 L 310.488281 303.304688 L 309.0625 303.304688 L 307.21875 303.308594 M 307.1875 172.726562 L 307.175781 117.753906 L 310.445312 117.753906 L 310.457031 172.722656 L 307.1875 172.726562 " fill-opacity="1" fill-rule="nonzero"/><path fill="#373737" d="M 307.1875 175.179688 L 307.1875 172.726562 L 310.457031 172.722656 L 310.457031 175.179688 L 307.1875 175.179688 " fill-opacity="1" fill-rule="nonzero"/><g clip-path="url(#b4f7513018)"><path fill="#000000" d="M 0.191406 374.546875 C 0.00390625 374.359375 0.00390625 374.058594 0.191406 373.871094 L 1.410156 372.652344 C 1.4375 372.625 1.480469 372.625 1.511719 372.652344 L 2.085938 373.230469 C 2.113281 373.257812 2.113281 373.300781 2.085938 373.328125 L 0.867188 374.546875 C 0.679688 374.734375 0.378906 374.734375 0.191406 374.546875 Z M 1.460938 372.804688 L 0.292969 373.972656 C 0.164062 374.101562 0.164062 374.316406 0.292969 374.445312 C 0.425781 374.578125 0.636719 374.578125 0.765625 374.445312 L 1.933594 373.277344 Z M 1.460938 372.804688 " fill-opacity="1" fill-rule="nonzero"/></g><path fill="#000000" d="M 1.746094 373.570312 L 1.171875 372.996094 C 1.140625 372.964844 1.140625 372.921875 1.171875 372.894531 C 1.199219 372.867188 1.242188 372.867188 1.269531 372.894531 L 1.84375 373.46875 C 1.875 373.496094 1.875 373.542969 1.84375 373.570312 C 1.816406 373.597656 1.773438 373.597656 1.746094 373.570312 Z M 1.746094 373.570312 " fill-opacity="1" fill-rule="nonzero"/><path fill="#000000" d="M 1.492188 373.820312 L 0.917969 373.246094 C 0.890625 373.21875 0.890625 373.175781 0.917969 373.144531 C 0.945312 373.117188 0.992188 373.117188 1.019531 373.144531 L 1.59375 373.71875 C 1.621094 373.75 1.621094 373.792969 1.59375 373.820312 C 1.566406 373.847656 1.519531 373.847656 1.492188 373.820312 Z M 1.492188 373.820312 " fill-opacity="1" fill-rule="nonzero"/><g clip-path="url(#4c33546b1b)"><path fill="#000000" d="M 1.855469 373.203125 L 1.535156 372.882812 C 1.507812 372.855469 1.507812 372.808594 1.535156 372.78125 L 2.734375 371.585938 L 2.792969 371.410156 C 2.796875 371.394531 2.804688 371.382812 2.820312 371.375 L 3.265625 371.054688 C 3.292969 371.035156 3.332031 371.039062 3.359375 371.0625 L 3.675781 371.382812 C 3.703125 371.40625 3.703125 371.445312 3.683594 371.472656 L 3.367188 371.921875 C 3.355469 371.933594 3.34375 371.941406 3.328125 371.945312 L 3.15625 372.003906 L 1.957031 373.203125 C 1.929688 373.230469 1.882812 373.230469 1.855469 373.203125 Z M 1.6875 372.832031 L 1.90625 373.050781 L 3.066406 371.890625 C 3.074219 371.882812 3.082031 371.878906 3.09375 371.875 L 3.261719 371.816406 L 3.53125 371.441406 L 3.300781 371.207031 L 2.921875 371.476562 L 2.863281 371.644531 C 2.859375 371.65625 2.855469 371.664062 2.847656 371.671875 Z M 1.6875 372.832031 " fill-opacity="1" fill-rule="nonzero"/></g><g clip-path="url(#dff1e25e6c)"><path fill="#000000" d="M 2.648438 374.507812 C 2.476562 374.335938 2.421875 374.078125 2.507812 373.851562 L 1.855469 373.203125 C 1.828125 373.175781 1.828125 373.128906 1.855469 373.101562 C 1.882812 373.074219 1.929688 373.074219 1.957031 373.101562 L 2.632812 373.777344 C 2.660156 373.804688 2.667969 373.84375 2.652344 373.878906 C 2.570312 374.054688 2.609375 374.265625 2.75 374.40625 C 2.863281 374.519531 3.03125 374.566406 3.1875 374.53125 L 2.96875 374.3125 C 2.941406 374.285156 2.941406 374.242188 2.96875 374.214844 L 3.222656 373.957031 C 3.253906 373.929688 3.296875 373.929688 3.324219 373.957031 L 3.542969 374.175781 C 3.578125 374.019531 3.53125 373.851562 3.417969 373.738281 C 3.277344 373.597656 3.066406 373.558594 2.890625 373.640625 C 2.855469 373.65625 2.816406 373.648438 2.789062 373.621094 L 2.113281 372.945312 C 2.085938 372.917969 2.085938 372.871094 2.113281 372.84375 C 2.140625 372.816406 2.183594 372.816406 2.214844 372.84375 L 2.863281 373.496094 C 3.089844 373.410156 3.347656 373.464844 3.515625 373.636719 C 3.703125 373.820312 3.75 374.101562 3.636719 374.335938 C 3.617188 374.378906 3.558594 374.390625 3.523438 374.355469 L 3.273438 374.109375 L 3.121094 374.261719 L 3.367188 374.511719 C 3.402344 374.546875 3.390625 374.605469 3.347656 374.625 C 3.113281 374.738281 2.832031 374.6875 2.648438 374.507812 Z M 2.648438 374.507812 " fill-opacity="1" fill-rule="nonzero"/></g><path fill="#000000" d="M 1.535156 372.882812 L 0.886719 372.230469 C 0.660156 372.316406 0.402344 372.261719 0.234375 372.089844 C 0.046875 371.90625 0 371.625 0.113281 371.390625 C 0.132812 371.347656 0.191406 371.335938 0.226562 371.371094 L 0.476562 371.621094 L 0.628906 371.464844 L 0.382812 371.214844 C 0.347656 371.179688 0.359375 371.121094 0.402344 371.101562 C 0.636719 370.988281 0.917969 371.039062 1.101562 371.222656 C 1.273438 371.390625 1.328125 371.652344 1.242188 371.875 L 1.894531 372.527344 C 1.921875 372.554688 1.921875 372.597656 1.894531 372.625 C 1.867188 372.65625 1.820312 372.65625 1.792969 372.625 L 1.117188 371.949219 C 1.089844 371.921875 1.082031 371.882812 1.097656 371.851562 C 1.179688 371.671875 1.140625 371.460938 1 371.324219 C 0.886719 371.207031 0.71875 371.160156 0.5625 371.195312 L 0.78125 371.414062 C 0.808594 371.441406 0.808594 371.488281 0.78125 371.515625 L 0.527344 371.769531 C 0.511719 371.785156 0.496094 371.792969 0.476562 371.792969 C 0.457031 371.792969 0.4375 371.785156 0.425781 371.769531 L 0.207031 371.554688 C 0.171875 371.707031 0.21875 371.875 0.332031 371.992188 C 0.472656 372.128906 0.683594 372.167969 0.859375 372.085938 C 0.894531 372.070312 0.933594 372.078125 0.960938 372.105469 L 1.636719 372.78125 C 1.664062 372.808594 1.664062 372.855469 1.636719 372.882812 C 1.609375 372.910156 1.566406 372.910156 1.535156 372.882812 Z M 1.535156 372.882812 " fill-opacity="1" fill-rule="nonzero"/></svg>